<?xml version="1.0" encoding="UTF-8"?>
<svg version="1.1" xmlns="http://www.w3.org/2000/svg" width="46" height="46">
<path d="M0 0 C10.15723018 5.29795727 18.85987931 12.63460357 27.3515625 20.2265625 C28.13144531 20.90976563 28.91132813 21.59296875 29.71484375 22.296875 C52.27980417 43.33550354 67.78877605 76.10501325 69.55810547 106.81103516 C69.65426673 110.53541553 69.68008901 114.25099656 69.6640625 117.9765625 C69.65886597 119.95064087 69.65886597 119.95064087 69.65356445 121.96459961 C69.54478421 131.71575678 68.6451761 140.75772924 66.3515625 150.2265625 C65.81479823 152.54780583 65.27975819 154.86944829 64.74609375 157.19140625 C64.28138425 159.20315602 63.81658575 161.21488524 63.3515625 163.2265625 C67.1558742 165.53811128 70.96040923 167.84929195 74.76513672 170.16015625 C76.0549092 170.94358788 77.3446244 171.72711381 78.63427734 172.51074219 C79.88711051 173.27198192 81.14005982 174.03303053 82.39312744 174.79388428 C83.62842274 175.54428668 84.86324783 176.29546369 86.09759521 177.04742432 C88.86075462 178.72825862 91.63060124 180.38881081 94.42675781 182.01464844 C95.32233398 182.53575195 96.21791016 183.05685547 97.140625 183.59375 C97.9135791 184.0357373 98.6865332 184.47772461 99.48291016 184.93310547 C101.3515625 186.2265625 101.3515625 186.2265625 103.3515625 189.2265625 C100.69252022 192.07039723 98.21428859 194.06469035 94.78125 195.890625 C93.8948584 196.36733643 93.0084668 196.84404785 92.09521484 197.33520508 C91.14855957 197.83560303 90.2019043 198.33600098 89.2265625 198.8515625 C87.21578637 199.93031982 85.20537389 201.00975523 83.1953125 202.08984375 C82.19886719 202.62303223 81.20242188 203.1562207 80.17578125 203.70556641 C76.33504901 205.77401055 72.53028162 207.903594 68.7265625 210.0390625 C59.66780746 215.10238889 50.51412569 219.98845508 41.35888672 224.87426758 C40.22338379 225.48036865 39.08788086 226.08646973 37.91796875 226.7109375 C36.26692139 227.58975586 36.26692139 227.58975586 34.58251953 228.48632812 C32.43305082 229.6440592 30.29320934 230.81984977 28.16357422 232.01367188 C27.18275879 232.56345703 26.20194336 233.11324219 25.19140625 233.6796875 C24.32765381 234.17114258 23.46390137 234.66259766 22.57397461 235.16894531 C20.3515625 236.2265625 20.3515625 236.2265625 17.3515625 236.2265625 C15.74460779 233.01265307 16.20721618 229.52584191 16.2265625 225.99609375 C16.22922119 225.09164017 16.23187988 224.18718658 16.23461914 223.25532532 C16.33213321 207.99398734 16.84335389 192.73558577 17.27868652 177.48101807 C17.40147327 173.15602465 17.5208894 168.83093815 17.640625 164.50585938 C17.87438428 156.07933474 18.11176095 147.65291734 18.3515625 139.2265625 C22.12268066 138.13748169 22.12268066 138.13748169 24.18261719 138.93920898 C24.79008789 139.32149658 25.39755859 139.70378418 26.0234375 140.09765625 C27.01923828 140.71157227 27.01923828 140.71157227 28.03515625 141.33789062 C28.71707031 141.77552734 29.39898437 142.21316406 30.1015625 142.6640625 C30.79894531 143.09783203 31.49632812 143.53160156 32.21484375 143.97851562 C33.93406136 145.05008277 35.6437655 146.13688606 37.3515625 147.2265625 C41.28753835 137.981716 41.71478698 128.41341476 41.6640625 118.4765625 C41.65914795 117.33276123 41.6542334 116.18895996 41.64916992 115.01049805 C41.52993849 106.38486825 40.74898175 98.5498608 38.3515625 90.2265625 C38.01125 89.00324219 37.6709375 87.77992188 37.3203125 86.51953125 C29.45895447 60.73108986 12.01260791 38.33656598 -11.6484375 25.2265625 C-17.88156716 22.00907343 -24.24260849 19.08125917 -30.6484375 16.2265625 C-30.28973939 13.56919546 -29.93881822 12.47540331 -27.87011719 10.70263672 C-27.11118164 10.2335791 -26.35224609 9.76452148 -25.5703125 9.28125 C-24.73886719 8.76175781 -23.90742188 8.24226562 -23.05078125 7.70703125 C-21.73787109 6.91232422 -21.73787109 6.91232422 -20.3984375 6.1015625 C-19.53863281 5.56402344 -18.67882812 5.02648437 -17.79296875 4.47265625 C-6.21899865 -2.67859492 -6.21899865 -2.67859492 0 0 Z " fill="#73BF4E" transform="translate(320.6484375,137.7734375)"/>
<path d="M0 0 C3.58864173 -0.07421317 5.67723543 0.03413777 8.765625 1.9140625 C9.833573 2.55009399 9.833573 2.55009399 10.9230957 3.19897461 C11.69097412 3.66956299 12.45885254 4.14015137 13.25 4.625 C14.95592054 5.64118984 16.66301271 6.65541464 18.37109375 7.66796875 C19.28101074 8.2098584 20.19092773 8.75174805 21.12841797 9.31005859 C26.14628954 12.26310289 31.22914033 15.09914359 36.3125 17.9375 C37.3651001 18.5262793 38.4177002 19.11505859 39.50219727 19.72167969 C46.54034499 23.64999824 53.60636912 27.52481975 60.6875 31.375 C63.3202615 32.81167234 65.95267655 34.24897716 68.58496094 35.68652344 C70.86700174 36.92766573 73.15577732 38.15557185 75.4453125 39.3828125 C76.73479869 40.08776721 78.02389396 40.79343772 79.3125 41.5 C80.40175781 42.0878125 81.49101562 42.675625 82.61328125 43.28125 C85.31415825 45.22623508 85.42155609 45.87954267 86 49 C83.21312902 50.84070559 80.41974873 52.67128178 77.625 54.5 C76.8309375 55.02464844 76.036875 55.54929687 75.21875 56.08984375 C74.45820313 56.58613281 73.69765625 57.08242188 72.9140625 57.59375 C72.2123291 58.05458984 71.5105957 58.51542969 70.78759766 58.99023438 C69 60 69 60 67 60 C71.9381104 66.29527319 77.24269389 70.75228488 84 75 C85.02996094 75.66128906 86.05992187 76.32257813 87.12109375 77.00390625 C111.58610613 91.90917969 141.70505167 95.03685191 169.40625 88.33203125 C176.64345717 86.3570035 183.31532158 83.36437661 190 80 C191.02867187 79.49210937 192.05734375 78.98421875 193.1171875 78.4609375 C199.28988777 75.26344456 204.66136997 71.43632636 210 67 C214.82051282 63 214.82051282 63 217 63 C218.22339653 69.53947695 218.20977275 75.86653269 218.125 82.5 C218.14820313 83.71042969 218.17140625 84.92085938 218.1953125 86.16796875 C218.04331445 94.8033582 218.04331445 94.8033582 215.22412109 98.03686523 C212.88622843 99.64666554 210.5904455 100.84413826 208 102 C207.27925293 102.36689941 206.55850586 102.73379883 205.81591797 103.11181641 C203.69453931 104.16832301 201.55221018 105.12692141 199.375 106.0625 C198.59648682 106.40047607 197.81797363 106.73845215 197.01586914 107.08666992 C168.50138448 119.26397405 135.11040677 122.91908803 105 114 C104.26974609 113.78569336 103.53949219 113.57138672 102.78710938 113.35058594 C81.94897751 107.0217634 60.12398825 95.81820786 46.1015625 78.6796875 C44.09797189 76.73644524 44.09797189 76.73644524 41.3125 76.90234375 C36.70997367 78.42747335 33.02095031 80.89063375 29 83.5625 C27.31248576 84.65303708 25.62367167 85.74156526 23.93359375 86.828125 C22.68618408 87.6334668 22.68618408 87.6334668 21.41357422 88.45507812 C18.00042462 90.63982531 14.55504919 92.75736373 11.0625 94.8125 C9.98097656 95.45832031 8.89945313 96.10414063 7.78515625 96.76953125 C4.71631675 98.12532991 4.04696713 97.96269332 1 97 C0.86662486 88.93010716 0.73612034 80.86017424 0.60884857 72.79018307 C0.54960854 69.03905469 0.48953899 65.28794426 0.42724609 61.53686523 C0.08735442 41.02255248 -0.07105009 20.5172179 0 0 Z " fill="#73BF4E" transform="translate(114,272)"/>
<path d="M0 0 C6.75017573 1.12502929 6.75017573 1.12502929 10.51953125 3.23046875 C11.36362549 3.69630371 12.20771973 4.16213867 13.07739258 4.64208984 C13.97997803 5.1520752 14.88256348 5.66206055 15.8125 6.1875 C16.77244873 6.72068848 17.73239746 7.25387695 18.72143555 7.80322266 C21.81922665 9.52679817 24.90975395 11.26293921 28 13 C30.04131584 14.13995138 32.08298168 15.27927622 34.125 16.41796875 C38.27957411 18.7372443 42.43029072 21.06322446 46.578125 23.39453125 C51.000377 25.87983687 55.42784601 28.35549304 59.859375 30.82421875 C61.54293091 31.76322021 61.54293091 31.76322021 63.26049805 32.72119141 C65.3991466 33.91377458 67.53858288 35.10494668 69.67895508 36.29443359 C75.21966011 39.38783723 80.6513306 42.58473785 86 46 C85.63511998 48.58641664 85.30016698 49.7351187 83.31152344 51.48999023 C82.58481445 51.94575439 81.85810547 52.40151855 81.109375 52.87109375 C79.88444336 53.64235596 79.88444336 53.64235596 78.63476562 54.42919922 C74.22015169 57.06111416 69.74839793 59.57709083 65.25 62.0625 C57.60059521 66.33727574 50.05515534 70.72936199 42.625 75.375 C34.61089401 80.37956657 26.57807101 85.34942041 18.5 90.25 C17.43088379 90.90661621 16.36176758 91.56323242 15.26025391 92.23974609 C14.25655762 92.84641113 13.25286133 93.45307617 12.21875 94.078125 C11.33123047 94.61856445 10.44371094 95.15900391 9.52929688 95.71582031 C6.98385793 97.00819568 4.81233538 97.58939398 2 98 C1.17961409 91.598406 0.87245487 85.38697499 0.9375 78.9375 C0.94201172 78.07189453 0.94652344 77.20628906 0.95117188 76.31445312 C0.96280087 74.20960461 0.98072927 72.10479242 1 70 C-25.76760337 79.63228151 -45.66317239 99.101741 -58.65625 124.19921875 C-69.10474101 146.72211391 -69.76050555 170.64839746 -67 195 C-70.88035223 194.40319041 -73.79648152 193.23341888 -77.23046875 191.34765625 C-78.19791016 190.81849609 -79.16535156 190.28933594 -80.16210938 189.74414062 C-81.16048828 189.18919922 -82.15886719 188.63425781 -83.1875 188.0625 C-84.19748047 187.51142578 -85.20746094 186.96035156 -86.24804688 186.39257812 C-93.72165644 182.27834356 -93.72165644 182.27834356 -96 180 C-97.96938436 165.05584806 -95.90192325 149.44705518 -92 135 C-91.81808105 134.32291992 -91.63616211 133.64583984 -91.44873047 132.94824219 C-82.23946693 99.97924331 -58.33443078 69.86811617 -28.63671875 53 C-6.98082521 41 -6.98082521 41 0 41 C0 27.47 0 13.94 0 0 Z " fill="#73BF4E" transform="translate(217,86)"/>
<path d="M0 0 C15.03890763 10.69078845 22.86385602 23.03849335 26.9453125 41.09375 C27.13996094 41.94324219 27.33460938 42.79273438 27.53515625 43.66796875 C27.97449476 46.26634224 28.07819846 48.70983938 28.0703125 51.34375 C28.07417969 52.65085937 28.07417969 52.65085937 28.078125 53.984375 C27.9453125 56.09375 27.9453125 56.09375 26.9453125 57.09375 C24.05388099 57.18898905 21.18639186 57.21928027 18.29467773 57.20727539 C16.9338356 57.20749443 16.9338356 57.20749443 15.54550171 57.2077179 C12.53161265 57.20701841 9.51778457 57.19922434 6.50390625 57.19140625 C4.42025283 57.1895422 2.33659896 57.18811824 0.25294495 57.18711853 C-5.24292196 57.18329234 -10.73876263 57.1734612 -16.23461914 57.16241455 C-21.83804977 57.1522026 -27.44148463 57.14762137 -33.04492188 57.14257812 C-44.04818864 57.13183902 -55.05143589 57.11476139 -66.0546875 57.09375 C-65.45348501 58.99437442 -64.84372601 60.89229337 -64.23046875 62.7890625 C-63.89184814 63.84625488 -63.55322754 64.90344727 -63.2043457 65.99267578 C-59.74310758 75.32897788 -53.42405785 82.22975962 -44.4296875 86.40625 C-34.03225893 90.85424742 -22.65761252 90.02603873 -12.13671875 86.42578125 C-5.88225687 83.7226488 -0.37314851 80.16838829 3.6328125 74.59375 C4.3959375 73.76875 5.1590625 72.94375 5.9453125 72.09375 C11.48677094 72.30478834 15.6046986 74.10286638 20.3828125 76.65625 C21.01896484 76.98560547 21.65511719 77.31496094 22.31054688 77.65429688 C23.86025826 78.45828248 25.40349572 79.27472666 26.9453125 80.09375 C26.08099407 87.56678014 20.08736827 92.36385487 14.65234375 97.0859375 C-2.23656812 109.81627308 -23.87999601 112.45892362 -44.39599609 109.7890625 C-60.2771853 106.77067406 -74.37089366 96.96179728 -83.37109375 83.7421875 C-92.58065815 69.25475208 -94.61645943 51.37839411 -90.9296875 34.65625 C-86.06029304 18.59618295 -75.83713723 5.71238526 -61.17578125 -2.5234375 C-41.77674429 -12.67212017 -18.60648456 -11.70968095 0 0 Z M-59.0546875 23.09375 C-62.10303651 27.81693904 -64.27280743 32.4951026 -65.0546875 38.09375 C-63.97589443 39.39737595 -63.97589443 39.39737595 -61.39085388 39.21400452 C-60.20282669 39.21178391 -59.0147995 39.20956329 -57.79077148 39.20727539 C-57.13713623 39.20742142 -56.48350098 39.20756744 -55.81005859 39.2077179 C-53.64026622 39.20701883 -51.47055871 39.19922678 -49.30078125 39.19140625 C-47.80005439 39.18954205 -46.29932693 39.18811816 -44.79859924 39.18711853 C-40.84150524 39.18329352 -36.88444772 39.1734634 -32.92736816 39.16241455 C-28.89233901 39.15220006 -24.85730397 39.14762083 -20.82226562 39.14257812 C-12.89972281 39.13184111 -4.97720969 39.1147649 2.9453125 39.09375 C1.4920031 29.51736167 -3.36980464 22.93531905 -10.75 16.78515625 C-26.55902632 5.18293863 -46.43777533 8.49905159 -59.0546875 23.09375 Z " fill="#37743E" transform="translate(287.0546875,206.90625)"/>
<path d="M0 0 C0.66 0.33 1.32 0.66 2 1 C2.40729228 3.32156597 2.74438677 5.6568787 3 8 C3.66 8 4.32 8 5 8 C5.0500364 12.3558609 5.08601534 16.7115624 5.10986328 21.06762695 C5.11982183 22.54454468 5.13339361 24.02144322 5.15087891 25.49829102 C5.26822269 35.67613883 4.51826517 45.10398271 2 55 C-2.49399722 56.59464418 -5.76732551 55.39338444 -10.109375 53.984375 C-12 53 -12 53 -13 50 C-14.65 50 -16.3 50 -18 50 C-18.9452246 68.23297661 -19.2876621 86.45842362 -19.53222656 104.71081543 C-19.58346834 108.47977185 -19.63860492 112.24867139 -19.69335938 116.01757812 C-19.79926493 123.34500326 -19.9010441 130.67247735 -20 138 C-19.01 138 -18.02 138 -17 138 C-16.505 137.01 -16.505 137.01 -16 136 C-14.35 136 -12.7 136 -11 136 C-18.2 142 -18.2 142 -23 142 C-24.60695471 138.78609057 -24.14434632 135.29927941 -24.125 131.76953125 C-24.12234131 130.86507767 -24.11968262 129.96062408 -24.11694336 129.02876282 C-24.01942929 113.76742484 -23.50820861 98.50902327 -23.07287598 83.25445557 C-22.95008923 78.92946215 -22.8306731 74.60437565 -22.7109375 70.27929688 C-22.47717822 61.85277224 -22.23980155 53.42635484 -22 45 C-18.22888184 43.91091919 -18.22888184 43.91091919 -16.16894531 44.71264648 C-15.56147461 45.09493408 -14.95400391 45.47722168 -14.328125 45.87109375 C-13.33232422 46.48500977 -13.33232422 46.48500977 -12.31640625 47.11132812 C-11.63449219 47.54896484 -10.95257813 47.98660156 -10.25 48.4375 C-9.55261719 48.87126953 -8.85523438 49.30503906 -8.13671875 49.75195312 C-6.41750114 50.82352027 -4.707797 51.91032356 -3 53 C0.98862917 43.62237803 1.29976525 34.06842056 1.1875 24 C1.18685547 22.90171875 1.18621094 21.8034375 1.18554688 20.671875 C1.14854866 13.73265457 0.75080901 6.8981118 0 0 Z " fill="#9DC784" transform="translate(361,232)"/>
<path d="M0 0 C3.59326787 -0.07651038 5.68442281 0.03465276 8.76953125 1.93359375 C9.43017578 2.33513672 10.09082031 2.73667969 10.77148438 3.15039062 C11.44501953 3.57513672 12.11855469 3.99988281 12.8125 4.4375 C13.50537109 4.85837891 14.19824219 5.27925781 14.91210938 5.71289062 C16.6314214 6.7715803 18.31901286 7.88145635 20 9 C20 9.33 20 9.66 20 10 C13.47116239 10.66962437 8.65874871 7.82937436 3 5 C3.02505615 5.60505371 3.0501123 6.21010742 3.07592773 6.83349609 C3.86343457 26.50866677 4.23532905 46.18756748 4.5625 65.875 C4.5736018 66.54287285 4.5847036 67.2107457 4.59614182 67.89885712 C4.73484372 76.26584038 4.8693297 84.6328876 5 93 C5.75466553 92.37963867 6.50933105 91.75927734 7.28686523 91.12011719 C10.35755174 88.72059936 13.58605374 86.96794693 17.0625 85.25 C17.67416016 84.93417969 18.28582031 84.61835938 18.91601562 84.29296875 C22.28130019 82.61214554 24.15289974 82 28 82 C28 81.34 28 80.68 28 80 C32.4468123 75.5531877 35.82863145 74.09492023 42 73 C43.32 73 44.64 73 46 73 C46.2475 73.78375 46.495 74.5675 46.75 75.375 C48.22323763 78.46879902 49.04143731 78.56554536 52 80 C53.625 82.4375 53.625 82.4375 55 85 C55.99 86.485 55.99 86.485 57 88 C52.3356489 86.08993767 49.68079131 82.5119237 46.4140625 78.80078125 C44.13690783 76.74959095 44.13690783 76.74959095 41.2734375 76.8828125 C36.70514901 78.44191812 33.00429913 80.90169823 29 83.5625 C27.31248576 84.65303708 25.62367167 85.74156526 23.93359375 86.828125 C22.68618408 87.6334668 22.68618408 87.6334668 21.41357422 88.45507812 C18.00042462 90.63982531 14.55504919 92.75736373 11.0625 94.8125 C9.98097656 95.45832031 8.89945313 96.10414063 7.78515625 96.76953125 C4.71631675 98.12532991 4.04696713 97.96269332 1 97 C0.86662486 88.93010716 0.73612034 80.86017424 0.60884857 72.79018307 C0.54960854 69.03905469 0.48953899 65.28794426 0.42724609 61.53686523 C0.08735442 41.02255248 -0.07105009 20.5172179 0 0 Z " fill="#8CBD72" transform="translate(114,272)"/>
<path d="M0 0 C0 0.66 0 1.32 0 2 C-0.66 2 -1.32 2 -2 2 C-2.66 3.65 -3.32 5.3 -4 7 C-4.99 7 -5.98 7 -7 7 C-7.99 7.33 -8.98 7.66 -10 8 C-11.21869929 10.50447516 -11.21869929 10.50447516 -12 13 C-12.66 13 -13.32 13 -14 13 C-14.33 13.99 -14.66 14.98 -15 16 C-16.2065625 16.4640625 -16.2065625 16.4640625 -17.4375 16.9375 C-20.52687989 18.21846239 -20.60554892 19.11813443 -22 22 C-23.33333333 22.33333333 -24.66666667 22.66666667 -26 23 C-27.06716704 24.79932579 -27.06716704 24.79932579 -28 27 C-30 29.75 -30 29.75 -32 32 C-32.66 32 -33.32 32 -34 32 C-34 32.99 -34 33.98 -34 35 C-34.99 35.495 -34.99 35.495 -36 36 C-36.13535156 36.598125 -36.27070313 37.19625 -36.41015625 37.8125 C-37.16032856 40.594596 -38.47445587 41.91043952 -40.4375 44 C-42.82300246 46.54984814 -44.57857037 48.79999762 -46 52 C-46.66 52 -47.32 52 -48 52 C-48.12375 52.515625 -48.2475 53.03125 -48.375 53.5625 C-49.18641628 56.72702351 -50.0945913 59.86124985 -51 63 C-51.33 63 -51.66 63 -52 63 C-52.62591479 65.02055018 -53.25068609 67.0414546 -53.875 69.0625 C-54.24109375 70.24457031 -54.6071875 71.42664063 -54.984375 72.64453125 C-55.74957477 75.17263357 -56.4607707 77.69485987 -57.125 80.25 C-57.558125 81.61125 -57.558125 81.61125 -58 83 C-58.99 83.495 -58.99 83.495 -60 84 C-60.46751788 86.35599235 -60.46751788 86.35599235 -60.625 89.0625 C-60.73714844 90.44115234 -60.73714844 90.44115234 -60.8515625 91.84765625 C-60.90054688 92.55792969 -60.94953125 93.26820313 -61 94 C-61.66 94 -62.32 94 -63 94 C-63.66 104.23 -64.32 114.46 -65 125 C-65.33 125 -65.66 125 -66 125 C-66.49802834 109.4845018 -66.0603733 95.03372399 -62 80 C-61.81808105 79.32291992 -61.63616211 78.64583984 -61.44873047 77.94824219 C-53.02361972 47.78649629 -31.68514446 18.82094462 -5.3125 1.8125 C-2 0 -2 0 0 0 Z " fill="#7DB760" transform="translate(187,141)"/>
<path d="M0 0 C4.75187752 0.79197959 6.82450417 1.16554813 10.73046875 3.3359375 C11.60751465 3.81836914 12.48456055 4.30080078 13.38818359 4.79785156 C14.31195801 5.31831055 15.23573242 5.83876953 16.1875 6.375 C17.62343506 7.17115723 17.62343506 7.17115723 19.08837891 7.98339844 C28.46112135 13.20197829 37.74715518 18.57223422 47 24 C45.68 24.66 44.36 25.32 43 26 C42.505 25.01 42.505 25.01 42 24 C40.39125 23.814375 40.39125 23.814375 38.75 23.625 C34.51440514 22.91906752 33.14138053 21.81918766 30 19 C25.72879989 15.84302601 22.07795336 14.43715661 17 13 C15.3125 11.4375 15.3125 11.4375 14 10 C11.89667109 9.28552357 11.89667109 9.28552357 10 9 C10 8.34 10 7.68 10 7 C9.401875 6.855625 8.80375 6.71125 8.1875 6.5625 C6.43849596 6.1127561 4.71322977 5.57107659 3 5 C3 17.54 3 30.08 3 43 C-0.3 43.66 -3.6 44.32 -7 45 C-10.11155874 46.50695206 -10.11155874 46.50695206 -13.171875 48.11328125 C-15.7091672 49.3439764 -18.21257191 49.72125719 -21 50 C-19.70374815 47.40749629 -18.70451437 47.29887769 -16.03515625 46.2734375 C-15.23529297 45.9640625 -14.43542969 45.6546875 -13.61132812 45.3359375 C-12.77021484 45.01882812 -11.92910156 44.70171875 -11.0625 44.375 C-9.80663086 43.88773438 -9.80663086 43.88773438 -8.52539062 43.390625 C-2.28264509 41 -2.28264509 41 0 41 C0 27.47 0 13.94 0 0 Z " fill="#AFD69A" transform="translate(217,86)"/>
<path d="M0 0 C12.94323954 15.43971008 15.39493086 41.58790099 15.3125 60.75 C15.30903564 62.06605225 15.30557129 63.38210449 15.30200195 64.73803711 C15.19299735 74.5093064 14.29122069 83.50485119 12 93 C11.7085218 94.3015447 11.41946598 95.6036342 11.1328125 96.90625 C10.45090659 99.94560205 9.74182344 102.97483349 9 106 C10.65 107.32 12.3 108.64 14 110 C11.8125 110.75 11.8125 110.75 9 111 C6.1875 109.0625 6.1875 109.0625 4 107 C4.66 107 5.32 107 6 107 C6.144375 105.865625 6.28875 104.73125 6.4375 103.5625 C7 100 7 100 8 99 C8.18679706 96.64872909 8.32376518 94.29343558 8.4375 91.9375 C8.89687948 83.64239136 8.89687948 83.64239136 10 79.6875 C12.33342243 71.08300478 12.15680775 62.17095843 12.125 53.3125 C12.12886719 52.22388672 12.13273437 51.13527344 12.13671875 50.01367188 C12.1300992 44.56909067 11.9665026 39.36178825 11 34 C10.34 34 9.68 34 9 34 C8.79503906 32.81921875 8.59007812 31.6384375 8.37890625 30.421875 C8.10684695 28.86457003 7.83470732 27.3072791 7.5625 25.75 C7.36043945 24.58404297 7.36043945 24.58404297 7.15429688 23.39453125 C6.95610352 22.26337891 6.95610352 22.26337891 6.75390625 21.109375 C6.57323608 20.07248535 6.57323608 20.07248535 6.38891602 19.01464844 C6.26057373 18.34981445 6.13223145 17.68498047 6 17 C5.86102295 16.27377441 5.7220459 15.54754883 5.57885742 14.79931641 C5.38783447 14.20554199 5.19681152 13.61176758 5 13 C4.00226563 12.55527344 4.00226563 12.55527344 2.984375 12.1015625 C2.32953125 11.73804688 1.6746875 11.37453125 1 11 C0.390625 8.3984375 0.390625 8.3984375 0.25 5.375 C0.19328125 4.37210938 0.1365625 3.36921875 0.078125 2.3359375 C0.05234375 1.56507813 0.0265625 0.79421875 0 0 Z " fill="#92C27A" transform="translate(375,195)"/>
<path d="M0 0 C2.97 0 5.94 0 9 0 C9 8.25 9 16.5 9 25 C11.31 25 13.62 25 16 25 C14.25 27 14.25 27 12 29 C10.68 29 9.36 29 8 29 C7.17961409 22.598406 6.87245487 16.38697499 6.9375 9.9375 C6.94201172 9.07189453 6.94652344 8.20628906 6.95117188 7.31445312 C6.96280087 5.20960461 6.98072927 3.10479242 7 1 C-7.77333547 6.31616238 -20.14292441 14.48688357 -31.328125 25.43359375 C-33.47466881 27.49540557 -35.57099226 29.29391123 -38 31 C-38.33 29.68 -38.66 28.36 -39 27 C-38.01 27 -37.02 27 -36 27 C-36 26.01 -36 25.02 -36 24 C-35.01 24 -34.02 24 -33 24 C-32.9175 23.401875 -32.835 22.80375 -32.75 22.1875 C-31.77705573 19.34974589 -30.55550687 18.50323933 -28 17 C-27.01 17 -26.02 17 -25 17 C-25 16.34 -25 15.68 -25 15 C-24.01 15 -23.02 15 -22 15 C-22 14.01 -22 13.02 -22 12 C-21.01 12 -20.02 12 -19 12 C-18.75378906 11.38382813 -18.50757813 10.76765625 -18.25390625 10.1328125 C-16.75202458 7.57821004 -15.6230159 7.0349869 -12.9375 5.875 C-9.81740843 4.65170572 -9.81740843 4.65170572 -8 2 C-2.55072464 0.72463768 -2.55072464 0.72463768 0 2 C0 1.34 0 0.68 0 0 Z " fill="#94C57E" transform="translate(211,155)"/>
<path d="M0 0 C1 2 1 2 0.00390625 5.4765625 C-0.46900047 6.86197936 -0.94981644 8.24471547 -1.4375 9.625 C-1.68048828 10.33140625 -1.92347656 11.0378125 -2.17382812 11.765625 C-2.77587205 13.51273287 -3.38708017 15.25667786 -4 17 C-4.33 17 -4.66 17 -5 17 C-5.62591479 19.02055018 -6.25068609 21.0414546 -6.875 23.0625 C-7.24109375 24.24457031 -7.6071875 25.42664063 -7.984375 26.64453125 C-8.74957477 29.17263357 -9.4607707 31.69485987 -10.125 34.25 C-10.558125 35.61125 -10.558125 35.61125 -11 37 C-11.99 37.495 -11.99 37.495 -13 38 C-13.46751788 40.35599235 -13.46751788 40.35599235 -13.625 43.0625 C-13.73714844 44.44115234 -13.73714844 44.44115234 -13.8515625 45.84765625 C-13.90054688 46.55792969 -13.94953125 47.26820313 -14 48 C-14.66 48 -15.32 48 -16 48 C-16.66 58.23 -17.32 68.46 -18 79 C-18.33 79 -18.66 79 -19 79 C-19.49802834 63.4845018 -19.0603733 49.03372399 -15 34 C-14.81808105 33.32291992 -14.63616211 32.64583984 -14.44873047 31.94824219 C-11.33514773 20.80167162 -6.4364425 9.65466375 0 0 Z " fill="#B3D99D" transform="translate(140,187)"/>
<path d="M0 0 C2.60830926 1.35148282 4.7661961 3.03616209 6.9375 5.00390625 C5.6175 5.33390625 4.2975 5.66390625 2.9375 6.00390625 C2.9375 5.34390625 2.9375 4.68390625 2.9375 4.00390625 C-5.0017633 3.17466018 -9.91186385 4.40291241 -16.65234375 8.69140625 C-19.0625 10.00390625 -19.0625 10.00390625 -23.0625 10.00390625 C-23.3925 11.32390625 -23.7225 12.64390625 -24.0625 14.00390625 C-23.464375 14.27203125 -22.86625 14.54015625 -22.25 14.81640625 C-20.07523336 15.99699386 -18.79433488 17.27207137 -17.0625 19.00390625 C-16.0725 19.33390625 -15.0825 19.66390625 -14.0625 20.00390625 C-14.0625 20.99390625 -14.0625 21.98390625 -14.0625 23.00390625 C-20.06182374 21.17077955 -25.51170563 18.93068874 -31.0625 16.00390625 C-30.70380189 13.34653921 -30.35288072 12.25274706 -28.28417969 10.47998047 C-27.52524414 10.01092285 -26.76630859 9.54186523 -25.984375 9.05859375 C-25.15292969 8.53910156 -24.32148438 8.01960937 -23.46484375 7.484375 C-22.15193359 6.68966797 -22.15193359 6.68966797 -20.8125 5.87890625 C-19.95269531 5.34136719 -19.09289062 4.80382812 -18.20703125 4.25 C-6.72899051 -2.84197895 -6.72899051 -2.84197895 0 0 Z " fill="#8DC174" transform="translate(321.0625,137.99609375)"/>
<path d="M0 0 C0.66 0.33 1.32 0.66 2 1 C2.40729228 3.32156597 2.74438677 5.6568787 3 8 C3.66 8 4.32 8 5 8 C5.0500364 12.3558609 5.08601534 16.7115624 5.10986328 21.06762695 C5.11982183 22.54454468 5.13339361 24.02144322 5.15087891 25.49829102 C5.26822269 35.67613883 4.51826517 45.10398271 2 55 C-1.112514 55.96747771 -2.48016155 56.25702664 -5.45703125 54.78515625 C-6.23433594 54.21667969 -7.01164062 53.64820313 -7.8125 53.0625 C-8.60269531 52.49660156 -9.39289063 51.93070312 -10.20703125 51.34765625 C-11.09455078 50.68056641 -11.09455078 50.68056641 -12 50 C-11.01 49.505 -11.01 49.505 -10 49 C-7.5249829 50.11431765 -5.32116581 51.58150978 -3 53 C0.98862917 43.62237803 1.29976525 34.06842056 1.1875 24 C1.18685547 22.90171875 1.18621094 21.8034375 1.18554688 20.671875 C1.14854866 13.73265457 0.75080901 6.8981118 0 0 Z " fill="#A2CC8A" transform="translate(361,232)"/>
<path d="M0 0 C7.85500194 -0.22161447 15.40010949 -0.22475427 23 2 C23.33 2.33 23.66 2.66 24 3 C27.88776252 3.26253759 31.79199809 3.18996776 35.6875 3.1875 C37.42858032 3.18737915 37.42858032 3.18737915 39.20483398 3.18725586 C56.99706976 4.28408361 56.99706976 4.28408361 73 0 C75.33297433 -0.04092937 77.66705225 -0.04241723 80 0 C60.90996438 11.12332784 27.08496897 8.04480795 6.5078125 3.0703125 C3 2 3 2 0 0 Z " fill="#8FC176" transform="translate(216,384)"/>
<path d="M0 0 C4.93729211 -0.23563512 7.77928505 1.33816806 11.8125 4 C12.7087207 4.57234375 12.7087207 4.57234375 13.62304688 5.15625 C15.0884978 6.09413859 16.5451635 7.0457295 18 8 C17.01 8.495 17.01 8.495 16 9 C13.38243565 7.75592166 10.90021463 6.47139635 8.375 5.0625 C7.05970726 4.33726542 5.74409437 3.61261128 4.42822266 2.88842773 C3.29690918 2.26524658 2.1655957 1.64206543 1 1 C1.06566162 2.22734863 1.13132324 3.45469727 1.19897461 4.71923828 C1.86916604 17.7048062 2.26068749 30.68293008 2.50268555 43.68310547 C2.56232479 46.86565032 2.62751785 50.04804682 2.69335938 53.23046875 C2.97027414 67.15498098 3.05645875 81.07292969 3 95 C4.65 95 6.3 95 8 95 C6.75 96.5625 6.75 96.5625 5 98 C2.890625 97.58984375 2.890625 97.58984375 1 97 C0.86662486 88.93010716 0.73612034 80.86017424 0.60884857 72.79018307 C0.54960854 69.03905469 0.48953899 65.28794426 0.42724609 61.53686523 C0.08735442 41.02255248 -0.07105009 20.5172179 0 0 Z " fill="#D0EDC1" transform="translate(114,272)"/>
<path d="M0 0 C1.26887921 6.61643184 1.02086421 12.98099782 0.8125 19.6875 C0.79380859 20.92306641 0.77511719 22.15863281 0.75585938 23.43164062 C0.71912109 24.61306641 0.68238281 25.79449219 0.64453125 27.01171875 C0.61721924 28.08897217 0.58990723 29.16622559 0.56176758 30.27612305 C0 33 0 33 -2.0402832 34.87426758 C-2.68698975 35.24575928 -3.33369629 35.61725098 -4 36 C-4.66 35.67 -5.32 35.34 -6 35 C-5.5155542 34.62383545 -5.0311084 34.2476709 -4.53198242 33.86010742 C-2.42350188 31.30002563 -2.57177677 29.5280048 -2.48828125 26.23828125 C-2.45283203 25.12001953 -2.41738281 24.00175781 -2.38085938 22.84960938 C-2.35830078 21.68236328 -2.33574219 20.51511719 -2.3125 19.3125 C-2.27833984 18.13365234 -2.24417969 16.95480469 -2.20898438 15.74023438 C-2.12642075 12.82691775 -2.05729678 9.91390534 -2 7 C-6.9416881 7.93913073 -6.9416881 7.93913073 -10.4375 11.125 C-10.623125 11.74375 -10.80875 12.3625 -11 13 C-11.99 13 -12.98 13 -14 13 C-14 13.66 -14 14.32 -14 15 C-16.31 15.66 -18.62 16.32 -21 17 C-21.66 16.34 -22.32 15.68 -23 15 C-22.07058594 14.41992188 -21.14117187 13.83984375 -20.18359375 13.2421875 C-12.1620636 8.26100579 -12.1620636 8.26100579 -4.75 2.4375 C-2 0 -2 0 0 0 Z " fill="#82B367" transform="translate(331,335)"/>
<path d="M0 0 C0 0.99 0 1.98 0 3 C-2.01822917 3.390625 -4.03645833 3.78125 -6.0546875 4.171875 C-7.01761719 4.58179688 -7.01761719 4.58179688 -8 5 C-8.30949585 5.93150879 -8.30949585 5.93150879 -8.62524414 6.88183594 C-10.81456222 10.25504206 -14.23859991 10.74279135 -17.94140625 11.71875 C-19.14356529 12.04147888 -19.14356529 12.04147888 -20.37001038 12.37072754 C-29.22862656 14.56460258 -37.86229439 14.68527834 -46.9375 14.5 C-48.6110801 14.48245389 -50.28466419 14.46528563 -51.95825195 14.44848633 C-81.31495851 14.02305799 -81.31495851 14.02305799 -86.95703125 9.39453125 C-87.30121094 8.93433594 -87.64539063 8.47414063 -88 8 C-87.42894531 8.12117188 -86.85789063 8.24234375 -86.26953125 8.3671875 C-83.51751046 8.93596763 -80.75914582 9.46690133 -78 10 C-77.11570313 10.19078125 -76.23140625 10.3815625 -75.3203125 10.578125 C-46.21875516 16.09874563 -25.4485252 0 0 0 Z " fill="#ACD497" transform="translate(308,351)"/>
<path d="M0 0 C0 3.63849071 -1.06751864 5.43529561 -2.6875 8.6875 C-9.66257663 23.4621304 -13.37842317 38.4623174 -13.1875 54.8125 C-13.18105469 55.95509277 -13.17460937 57.09768555 -13.16796875 58.27490234 C-13.09852327 65.88460792 -12.85779351 73.43303578 -12 81 C-15.81583379 80.34820749 -18.02881405 79.53101025 -21 77 C-19.02 77.33 -17.04 77.66 -15 78 C-15.00523682 76.93152832 -15.01047363 75.86305664 -15.01586914 74.76220703 C-15.0341239 70.75521703 -15.04550602 66.74823062 -15.05493164 62.74121094 C-15.05992544 61.01496765 -15.06672279 59.28872851 -15.07543945 57.5625 C-15.19531866 33.19176182 -15.19531866 33.19176182 -12 27 C-11.40849296 23.90280341 -10.99018562 20.80332001 -10.5625 17.6796875 C-10 15 -10 15 -8 13 C-7.35232207 10.42938689 -7.35232207 10.42938689 -7 8 C-6.34 8 -5.68 8 -5 8 C-4.67 7.01 -4.34 6.02 -4 5 C-3 2 -3 2 0 0 Z " fill="#BDDFAB" transform="translate(162,200)"/>
<path d="M0 0 C-27.89441851 15.48055122 -27.89441851 15.48055122 -40.1875 22.0625 C-40.96327393 22.48515137 -41.73904785 22.90780273 -42.53833008 23.34326172 C-44.32690179 24.29178089 -46.159615 25.15640031 -48 26 C-48.66 25.67 -49.32 25.34 -50 25 C-49.3125 23.0625 -49.3125 23.0625 -48 21 C-45.375 20.25 -45.375 20.25 -43 20 C-42.67 19.01 -42.34 18.02 -42 17 C-39.96875 15.8671875 -39.96875 15.8671875 -37.5 14.875 C-34.51655512 13.79938082 -34.51655512 13.79938082 -32 12 C-30.6545813 12.05812866 -30.6545813 12.05812866 -29.28198242 12.11743164 C-25.48519917 11.98158006 -23.71751309 11.06980253 -20.48828125 9.12109375 C-19.48345703 8.53005859 -18.47863281 7.93902344 -17.44335938 7.33007812 C-16.41017578 6.70552734 -15.37699219 6.08097656 -14.3125 5.4375 C-12.25156566 4.19788805 -10.18538635 2.96694125 -8.11328125 1.74609375 C-7.20360596 1.19622803 -6.29393066 0.6463623 -5.35668945 0.07983398 C-3 -1 -3 -1 0 0 Z " fill="#BDDEA6" transform="translate(400,342)"/>
<path d="M0 0 C13.25282541 15.80900836 15.37609887 42.26705849 15.125 61.8125 C15.11493373 63.19856112 15.10581442 64.58462946 15.09765625 65.97070312 C15.07435806 69.31399273 15.04164862 72.65689731 15 76 C14.67 76 14.34 76 14 76 C13.98018066 75.18958252 13.96036133 74.37916504 13.93994141 73.54418945 C13.86076596 70.47056366 13.77405496 67.39725823 13.68261719 64.32397461 C13.62654755 62.36652645 13.57878078 60.40884599 13.53125 58.45117188 C13.27814998 50.16214616 12.47111312 42.16199837 11 34 C10.34 34 9.68 34 9 34 C8.79503906 32.81921875 8.59007812 31.6384375 8.37890625 30.421875 C8.10684695 28.86457003 7.83470732 27.3072791 7.5625 25.75 C7.36043945 24.58404297 7.36043945 24.58404297 7.15429688 23.39453125 C6.95610352 22.26337891 6.95610352 22.26337891 6.75390625 21.109375 C6.57323608 20.07248535 6.57323608 20.07248535 6.38891602 19.01464844 C6.26057373 18.34981445 6.13223145 17.68498047 6 17 C5.86102295 16.27377441 5.7220459 15.54754883 5.57885742 14.79931641 C5.38783447 14.20554199 5.19681152 13.61176758 5 13 C4.00226563 12.55527344 4.00226563 12.55527344 2.984375 12.1015625 C2.32953125 11.73804688 1.6746875 11.37453125 1 11 C0.390625 8.3984375 0.390625 8.3984375 0.25 5.375 C0.19328125 4.37210938 0.1365625 3.36921875 0.078125 2.3359375 C0.05234375 1.56507813 0.0265625 0.79421875 0 0 Z " fill="#BDDEAB" transform="translate(375,195)"/>
<path d="M0 0 C6.12801881 1.64510572 11.30051654 4.85095937 16.75 8 C18.79784364 9.17115616 20.84602536 10.34172134 22.89453125 11.51171875 C23.91498535 12.09614746 24.93543945 12.68057617 25.98681641 13.28271484 C30.45132066 15.82714224 34.94183266 18.32366337 39.4375 20.8125 C40.20610352 21.23853516 40.97470703 21.66457031 41.76660156 22.10351562 C43.51062502 23.06980983 45.25523619 24.03504323 47 25 C46.01 25.495 46.01 25.495 45 26 C42.39525962 24.92591043 39.90033962 23.79954367 37.375 22.5625 C36.66859375 22.22412109 35.9621875 21.88574219 35.234375 21.53710938 C33.48618616 20.69845121 31.74264314 19.85012153 30 19 C30 18.34 30 17.68 30 17 C25.71 16.01 21.42 15.02 17 14 C17 13.34 17 12.68 17 12 C16.41089844 11.89558594 15.82179687 11.79117187 15.21484375 11.68359375 C12.67379923 10.89932075 11.48371353 9.87722595 9.5625 8.0625 C6.8188056 5.58432441 4.463861 4.32441744 1 3 C0.67 2.01 0.34 1.02 0 0 Z " fill="#A2CF8B" transform="translate(141,286)"/>
<path d="M0 0 C0.33 0 0.66 0 1 0 C1 2.31 1 4.62 1 7 C-30.02 7 -61.04 7 -93 7 C-93 6.67 -93 6.34 -93 6 C-62.67043851 4.80210976 -32.34858348 4.89197351 -2 5 C-1.34 3.35 -0.68 1.7 0 0 Z " fill="#39623F" transform="translate(313,256)"/>
<path d="M0 0 C1.15469014 3.94157386 0.82245557 6.96249082 0 11 C-0.66 11.66 -1.32 12.32 -2 13 C-2.39764263 14.98821313 -2.73775349 16.98944339 -3 19 C-3.66 19 -4.32 19 -5 19 C-5.0270203 21.75006608 -5.04684883 24.49986546 -5.0625 27.25 C-5.07087891 28.02730469 -5.07925781 28.80460937 -5.08789062 29.60546875 C-5.09111328 30.35957031 -5.09433594 31.11367188 -5.09765625 31.890625 C-5.10289307 32.58188477 -5.10812988 33.27314453 -5.11352539 33.98535156 C-4.99414365 36.10392821 -4.51687492 37.94669601 -4 40 C-3.96111651 42.33300933 -3.9551365 44.66709801 -4 47 C-3.34 47 -2.68 47 -2 47 C-0.875 49.8125 -0.875 49.8125 0 53 C-0.66 53.99 -1.32 54.98 -2 56 C-5.4961938 47.25951549 -7.3785232 39.12978876 -7.3125 29.6875 C-7.30831055 28.86080811 -7.30412109 28.03411621 -7.29980469 27.18237305 C-7.11640702 17.18232255 -4.87027226 8.73290197 0 0 Z " fill="#698E6C" transform="translate(202,228)"/>
<path d="M0 0 C1.66682531 0.1440088 3.33345185 0.29031844 5 0.4375 C6.3921875 0.55931641 6.3921875 0.55931641 7.8125 0.68359375 C10.09933193 0.91059545 12.38130138 1.18879506 14.65820312 1.5 C18.99254278 2.04460978 23.29183591 2.21865285 27.65625 2.31640625 C28.83785706 2.3475779 28.83785706 2.3475779 30.04333496 2.37937927 C32.52881206 2.44410974 35.01438333 2.50339906 37.5 2.5625 C39.19792592 2.60575823 40.89584275 2.64937468 42.59375 2.69335938 C46.72907325 2.79971113 50.86449001 2.90118749 55 3 C51.22874089 5.46361202 47.43186404 5.28954851 43.0859375 5.265625 C41.93141586 5.26849518 41.93141586 5.26849518 40.75357056 5.27142334 C39.12461012 5.27278264 37.49563876 5.26910397 35.86669922 5.26074219 C33.40436632 5.2501266 30.9427777 5.26060012 28.48046875 5.2734375 C18.67257153 5.28202858 9.07508274 5.23503861 0 1 C0 0.67 0 0.34 0 0 Z " fill="#7FB760" transform="translate(223,362)"/>
<path d="M0 0 C1.4800841 0.11362262 2.95910074 0.24122908 4.4375 0.375 C5.26121094 0.44460937 6.08492188 0.51421875 6.93359375 0.5859375 C7.95646484 0.79089844 7.95646484 0.79089844 9 1 C9.33 1.66 9.66 2.32 10 3 C12.01669827 4.13350534 12.01669827 4.13350534 14 5 C14 5.66 14 6.32 14 7 C14.639375 7.12375 15.27875 7.2475 15.9375 7.375 C16.9584375 7.684375 16.9584375 7.684375 18 8 C18.33 8.66 18.66 9.32 19 10 C19.969375 10.268125 20.93875 10.53625 21.9375 10.8125 C25 12 25 12 26.25 14.25 C26.4975 15.1575 26.745 16.065 27 17 C27.37125 18.093125 27.7425 19.18625 28.125 20.3125 C28.41375 21.199375 28.7025 22.08625 29 23 C28.030625 22.175 27.06125 21.35 26.0625 20.5 C25.41667969 19.95085937 24.77085937 19.40171875 24.10546875 18.8359375 C22.70898814 17.61822714 21.3358204 16.37322081 19.98828125 15.1015625 C14.57357037 10.03715639 8.89557336 6.29397249 2.52734375 2.56640625 C1.69332031 2.04949219 0.85929687 1.53257812 0 1 C0 0.67 0 0.34 0 0 Z " fill="#9CC982" transform="translate(307,161)"/>
<path d="M0 0 C2.29755922 3.44633882 2.23643976 4.71068391 2.1953125 8.76171875 C2.18886719 9.87998047 2.18242188 10.99824219 2.17578125 12.15039062 C2.15902344 13.31763672 2.14226562 14.48488281 2.125 15.6875 C2.11597656 16.86634766 2.10695313 18.04519531 2.09765625 19.25976562 C2.07406423 22.17338026 2.0411454 25.08658892 2 28 C3.32 28.33 4.64 28.66 6 29 C6 29.66 6 30.32 6 31 C6.598125 31.103125 7.19625 31.20625 7.8125 31.3125 C10.31258286 32.09824033 11.37535082 32.96918853 13 35 C13 35.66 13 36.32 13 37 C7.88575378 35.59358229 2.79577509 33.81378782 -1 30 C-2.02531217 26.54741049 -1.80511872 23.31674532 -1.5625 19.75 C-1.53478516 18.84636719 -1.50707031 17.94273437 -1.47851562 17.01171875 C-1.26921731 11.30731381 -0.68782219 5.66441803 0 0 Z " fill="#82B867" transform="translate(123,237)"/>
<path d="M0 0 C2.97 0 5.94 0 9 0 C9 8.25 9 16.5 9 25 C11.31 25 13.62 25 16 25 C14.25 27 14.25 27 12 29 C10.68 29 9.36 29 8 29 C7.17961409 22.598406 6.87245487 16.38697499 6.9375 9.9375 C6.94201172 9.07189453 6.94652344 8.20628906 6.95117188 7.31445312 C6.96280087 5.20960461 6.98072927 3.10479242 7 1 C5.95199219 1.433125 5.95199219 1.433125 4.8828125 1.875 C3.97273437 2.24625 3.06265625 2.6175 2.125 3 C0.76761719 3.556875 0.76761719 3.556875 -0.6171875 4.125 C-3 5 -3 5 -5 5 C-4.67 3.68 -4.34 2.36 -4 1 C-2.02 1.495 -2.02 1.495 0 2 C0 1.34 0 0.68 0 0 Z " fill="#C5E1AF" transform="translate(211,155)"/>
<path d="M0 0 C5.75 0.75 5.75 0.75 8 3 C8.22705078 5.43017578 8.22705078 5.43017578 8.1953125 8.4453125 C8.18564453 10.05986328 8.18564453 10.05986328 8.17578125 11.70703125 C8.15902344 12.83496094 8.14226562 13.96289062 8.125 15.125 C8.11597656 16.26066406 8.10695312 17.39632812 8.09765625 18.56640625 C8.07403098 21.37781299 8.04109013 24.18880298 8 27 C9.09441406 26.50886719 10.18882812 26.01773438 11.31640625 25.51171875 C14.65605663 24.14115173 16.48460748 23.68041886 20 24 C16.12873869 27.63663942 13.3000045 28.69999975 8 29 C7.34 28.67 6.68 28.34 6 28 C6 19.75 6 11.5 6 3 C4.68 3 3.36 3 2 3 C2 2.34 2 1.68 2 1 C1.34 0.67 0.68 0.34 0 0 Z " fill="#7CB95C" transform="translate(214,152)"/>
<path d="M0 0 C0.66 0.33 1.32 0.66 2 1 C-2.77694429 5.18619212 -8.198468 8.17537866 -13.6875 11.3125 C-14.64978516 11.87517578 -15.61207031 12.43785156 -16.60351562 13.01757812 C-17.52197266 13.54416016 -18.44042969 14.07074219 -19.38671875 14.61328125 C-20.22420654 15.09579346 -21.06169434 15.57830566 -21.92456055 16.07543945 C-22.60945557 16.38054443 -23.29435059 16.68564941 -24 17 C-24.66 16.67 -25.32 16.34 -26 16 C-26 15.01 -26 14.02 -26 13 C-22.98968256 12.06576355 -22.13349732 11.95550089 -19 13 C-18.67 11.35 -18.34 9.7 -18 8 C-16.68 8.33 -15.36 8.66 -14 9 C-13.67 8.01 -13.34 7.02 -13 6 C-9.20991916 2.20991916 -6.25827246 1.50560312 -1 1 C-0.67 0.67 -0.34 0.34 0 0 Z " fill="#A9D192" transform="translate(301,134)"/>
<path d="M0 0 C0.33 0 0.66 0 1 0 C0.67 14.85 0.34 29.7 0 45 C-3.3 44.34 -6.6 43.68 -10 43 C-10.33 42.34 -10.66 41.68 -11 41 C-8.03 41.33 -5.06 41.66 -2 42 C-2.01047363 41.04746338 -2.02094727 40.09492676 -2.03173828 39.11352539 C-2.06825181 35.54081052 -2.09101318 31.96811175 -2.10986328 28.39526367 C-2.11985006 26.85617285 -2.13344419 25.31710065 -2.15087891 23.77807617 C-2.24087337 15.62298961 -2.28577933 7.91023636 0 0 Z " fill="#7DB660" transform="translate(147,233)"/>
<path d="M0 0 C1.134375 0.020625 2.26875 0.04125 3.4375 0.0625 C-7.9145368 6.22819113 -20.88349074 5.43675599 -33.375 5.25 C-35.1464729 5.23491466 -36.91795834 5.22123312 -38.68945312 5.20898438 C-42.98078474 5.17630946 -47.27149961 5.12474392 -51.5625 5.0625 C-51.5625 4.7325 -51.5625 4.4025 -51.5625 4.0625 C-50.59932861 4.032771 -50.59932861 4.032771 -49.61669922 4.00244141 C-37.74208655 3.6207499 -25.89783105 3.12837192 -14.0625 2.0625 C-12.64880127 1.9380249 -12.64880127 1.9380249 -11.20654297 1.81103516 C-7.15476811 1.42562058 -3.80684588 0.06678677 0 0 Z " fill="#7AB65F" transform="translate(292.5625,383.9375)"/>
<path d="M0 0 C8.11090378 3.79781142 15.71039955 8.32756236 23.34228516 12.98925781 C25.5544254 14.33804435 27.77646051 15.67011162 30 17 C29.34 17.33 28.68 17.66 28 18 C26 17 24 16 22 15 C19.26178888 14.45235778 16.5928506 14.05081577 13.8125 13.8125 C12 13 12 13 10.625 10 C10.08875 9.01 9.5525 8.02 9 7 C5.91038542 6.02525184 5.91038542 6.02525184 3 6 C2.67 4.68 2.34 3.36 2 2 C1.34 2 0.68 2 0 2 C0 1.34 0 0.68 0 0 Z " fill="#A7D191" transform="translate(389,305)"/>
<path d="M0 0 C0.66 0.33 1.32 0.66 2 1 C1.67 1.66 1.34 2.32 1 3 C0.34 3 -0.32 3 -1 3 C-1 3.99 -1 4.98 -1 6 C-1.99 6.495 -1.99 6.495 -3 7 C-3.20302734 7.8971875 -3.20302734 7.8971875 -3.41015625 8.8125 C-4.16032856 11.594596 -5.47445587 12.91043952 -7.4375 15 C-9.82300246 17.54984814 -11.57857037 19.79999762 -13 23 C-13.66 22.67 -14.32 22.34 -15 22 C-12.71140064 12.78021401 -7.86214867 5.47967938 0 0 Z " fill="#7BB65E" transform="translate(154,170)"/>
<path d="M0 0 C4.32614203 0.53317076 7.42613259 1.52149751 11.1796875 3.72265625 C12.1078125 4.26083984 13.0359375 4.79902344 13.9921875 5.35351562 C14.94351562 5.91748047 15.89484375 6.48144531 16.875 7.0625 C17.84953125 7.63033203 18.8240625 8.19816406 19.828125 8.78320312 C22.2237038 10.18062409 24.61396262 11.58636981 27 13 C25 14 25 14 23.23046875 13.4765625 C22.55628906 13.19554688 21.88210938 12.91453125 21.1875 12.625 C18.13560549 11.4075776 15.26166336 10.5096349 12 10 C12 9.34 12 8.68 12 8 C11.38511719 7.81824219 10.77023437 7.63648437 10.13671875 7.44921875 C9.32847656 7.19785156 8.52023437 6.94648437 7.6875 6.6875 C6.88699219 6.44386719 6.08648437 6.20023437 5.26171875 5.94921875 C2.87242107 4.94645651 1.60410493 4.01940718 0 2 C0 1.34 0 0.68 0 0 Z " fill="#83B869" transform="translate(262,111)"/>
<path d="M0 0 C3.875 1.75 3.875 1.75 5 4 C1.33245589 8.27880146 -3.25673561 10.63995359 -8.125 13.3125 C-8.94871094 13.77978516 -9.77242188 14.24707031 -10.62109375 14.72851562 C-11.40871094 15.16486328 -12.19632812 15.60121094 -13.0078125 16.05078125 C-14.08506592 16.64886597 -14.08506592 16.64886597 -15.18408203 17.2590332 C-15.78333496 17.50355225 -16.38258789 17.74807129 -17 18 C-17.66 17.67 -18.32 17.34 -19 17 C-18.9375 15.1875 -18.9375 15.1875 -18 13 C-14.4375 11.25 -14.4375 11.25 -11 10 C-11 9.67 -11 9.34 -11 9 C-10.37351562 8.86722656 -9.74703125 8.73445313 -9.1015625 8.59765625 C-8.28429687 8.42105469 -7.46703125 8.24445313 -6.625 8.0625 C-5.40683594 7.80146484 -5.40683594 7.80146484 -4.1640625 7.53515625 C-1.970537 7.07669307 -1.970537 7.07669307 0 6 C0.75243555 4.07361988 0.75243555 4.07361988 1 2 C0.67 1.34 0.34 0.68 0 0 Z " fill="#A2CD8C" transform="translate(419,323)"/>
<path d="M0 0 C1.98 0 3.96 0 6 0 C2.51338102 3.73718325 -1.73141672 6.10190999 -6.0625 8.75 C-6.89072266 9.26949219 -7.71894531 9.78898438 -8.57226562 10.32421875 C-9.36439453 10.81019531 -10.15652344 11.29617187 -10.97265625 11.796875 C-11.69718994 12.24385742 -12.42172363 12.69083984 -13.16821289 13.15136719 C-13.77270264 13.43141602 -14.37719238 13.71146484 -15 14 C-15.66 13.67 -16.32 13.34 -17 13 C-16.67 12.01 -16.34 11.02 -16 10 C-15.34 9.67 -14.68 9.34 -14 9 C-12.9590934 7.35857037 -11.95495674 5.69287785 -11 4 C-8.03 4.495 -8.03 4.495 -5 5 C-5 4.34 -5 3.68 -5 3 C-3.35 2.34 -1.7 1.68 0 1 C0 0.67 0 0.34 0 0 Z " fill="#80BD62" transform="translate(269,151)"/>
<path d="M0 0 C-0.7425 0.4125 -1.485 0.825 -2.25 1.25 C-4.98995424 2.83233698 -4.98995424 2.83233698 -6.75 4.875 C-10.08170262 8.02160803 -15.25573997 12 -20 12 C-19.95703125 9.7734375 -19.95703125 9.7734375 -19 7 C-16.54190842 5.27429517 -14.34383534 3.95192523 -11.6875 2.625 C-10.67139648 2.07392578 -10.67139648 2.07392578 -9.63476562 1.51171875 C-5.96429768 -0.38989221 -3.93662143 -1.31527938 0 0 Z " fill="#82B865" transform="translate(142,355)"/>
<path d="M0 0 C1.26887921 6.61643184 1.02086421 12.98099782 0.8125 19.6875 C0.79380859 20.92306641 0.77511719 22.15863281 0.75585938 23.43164062 C0.71912109 24.61306641 0.68238281 25.79449219 0.64453125 27.01171875 C0.61721924 28.08897217 0.58990723 29.16622559 0.56176758 30.27612305 C0 33 0 33 -2.0402832 34.87426758 C-2.68698975 35.24575928 -3.33369629 35.61725098 -4 36 C-4.66 35.67 -5.32 35.34 -6 35 C-4.625 33.5 -4.625 33.5 -3 32 C-2.34 32 -1.68 32 -1 32 C-1 22.1 -1 12.2 -1 2 C-4.465 4.97 -4.465 4.97 -8 8 C-8.66 7.67 -9.32 7.34 -10 7 C-8.71372289 5.82739389 -7.42080217 4.6620717 -6.125 3.5 C-5.04605469 2.52546875 -5.04605469 2.52546875 -3.9453125 1.53125 C-2 0 -2 0 0 0 Z " fill="#D0E6C3" transform="translate(331,335)"/>
<path d="M0 0 C0.33 0 0.66 0 1 0 C1.33 19.14 1.66 38.28 2 58 C3.485 57.505 3.485 57.505 5 57 C5 57.99 5 58.98 5 60 C3.35 60 1.7 60 0 60 C0 40.2 0 20.4 0 0 Z " fill="#7CB75F" transform="translate(117,307)"/>
<path d="M0 0 C0.66 0.66 1.32 1.32 2 2 C-1.54070678 3.93925795 -5.08273433 5.87609121 -8.625 7.8125 C-9.62402344 8.35970703 -10.62304688 8.90691406 -11.65234375 9.47070312 C-16.3972836 12.06313715 -21.13721019 14.63499131 -26 17 C-26.66 16.34 -27.32 15.68 -28 15 C-26.5459375 14.319375 -26.5459375 14.319375 -25.0625 13.625 C-21.92920418 12.34213779 -21.92920418 12.34213779 -21 10 C-19.2578125 9.1484375 -19.2578125 9.1484375 -17.125 8.375 C-16.42632812 8.11460937 -15.72765625 7.85421875 -15.0078125 7.5859375 C-13 7 -13 7 -10 7 C-10 6.34 -10 5.68 -10 5 C-8.35 4.67 -6.7 4.34 -5 4 C-5 3.34 -5 2.68 -5 2 C-3.35 2 -1.7 2 0 2 C0 1.34 0 0.68 0 0 Z " fill="#86B968" transform="translate(399,338)"/>
<path d="M0 0 C-8.28495817 5.52330545 -18.63093759 5.40895421 -28.25 5.1875 C-29.38824219 5.17396484 -30.52648437 5.16042969 -31.69921875 5.14648438 C-34.46666987 5.11160054 -37.23306105 5.06259317 -40 5 C-40 4.67 -40 4.34 -40 4 C-29.605 3.505 -29.605 3.505 -19 3 C-19 2.67 -19 2.34 -19 2 C-16.9620493 1.46481117 -14.91940991 0.94745907 -12.875 0.4375 C-11.16957031 0.00244141 -11.16957031 0.00244141 -9.4296875 -0.44140625 C-5.93510616 -1.01056927 -3.42796653 -0.78666101 0 0 Z " fill="#769978" transform="translate(285,312)"/>
<path d="M0 0 C0 0.66 0 1.32 0 2 C-0.66 2 -1.32 2 -2 2 C-2.66 3.65 -3.32 5.3 -4 7 C-4.99 7 -5.98 7 -7 7 C-12.3598449 9.65750972 -16.40732012 12.92448506 -20.6875 17.0625 C-27.42180622 23.48394647 -27.42180622 23.48394647 -31 26 C-27.50147218 17.99823894 -9.52047896 0 0 0 Z " fill="#CBEAB9" transform="translate(187,141)"/>
<path d="M0 0 C5.1847075 2.77398363 9.51935326 5.88475566 13.9375 9.75 C14.82018555 10.50990234 14.82018555 10.50990234 15.72070312 11.28515625 C17.15159448 12.51828214 18.57644939 13.75840699 20 15 C18.02 15.99 18.02 15.99 16 17 C15.938125 16.071875 15.938125 16.071875 15.875 15.125 C15.58625 14.42375 15.2975 13.7225 15 13 C14.030625 12.690625 13.06125 12.38125 12.0625 12.0625 C9 11 9 11 7.625 8.375 C7.315625 7.199375 7.315625 7.199375 7 6 C5.35 6.33 3.7 6.66 2 7 C0 4 0 4 0 0 Z " fill="#A7D090" transform="translate(328,143)"/>
<path d="M0 0 C3.68266103 0.59950296 7.34543185 1.24758891 11 2 C11 2.66 11 3.32 11 4 C11.66 4 12.32 4 13 4 C13 4.66 13 5.32 13 6 C13.68707031 6.03738281 14.37414062 6.07476562 15.08203125 6.11328125 C15.98308594 6.17902344 16.88414062 6.24476563 17.8125 6.3125 C19.15248047 6.39951172 19.15248047 6.39951172 20.51953125 6.48828125 C23.30604 7.06313581 24.24135754 7.8206856 26 10 C22.59732695 11.17875733 20.84196012 10.84863444 17.55859375 9.453125 C16.72779297 9.1025 15.89699219 8.751875 15.04101562 8.390625 C14.18185547 8.01421875 13.32269531 7.6378125 12.4375 7.25 C11.57447266 6.8890625 10.71144531 6.528125 9.82226562 6.15625 C2.83975921 3.16142207 2.83975921 3.16142207 0 0 Z " fill="#A2CB8F" transform="translate(190,373)"/>
<path d="M0 0 C0 3.73837382 -1.19193261 5.82413264 -2.8125 9.1875 C-5.12217608 14.06894307 -7.20351649 18.90996339 -9 24 C-9.66 24 -10.32 24 -11 24 C-10.88590407 22.54077307 -10.75834456 21.08259402 -10.625 19.625 C-10.55539063 18.81289062 -10.48578125 18.00078125 -10.4140625 17.1640625 C-10 15 -10 15 -8 13 C-7.35232207 10.42938689 -7.35232207 10.42938689 -7 8 C-6.34 8 -5.68 8 -5 8 C-4.67 7.01 -4.34 6.02 -4 5 C-3 2 -3 2 0 0 Z " fill="#99C885" transform="translate(162,200)"/>
<path d="M0 0 C2.68599431 2.68599431 3.05712659 5.16180947 4.0625 8.8125 C4.40410156 10.03582031 4.74570312 11.25914062 5.09765625 12.51953125 C6.32408546 17.25004392 7.12776832 21.41737581 7.0625 26.3125 C7.05347656 27.19550781 7.04445313 28.07851563 7.03515625 28.98828125 C7.02355469 29.65214844 7.01195312 30.31601562 7 31 C6.67 31 6.34 31 6 31 C5.81824219 30.01 5.63648438 29.02 5.44921875 28 C3.96503503 19.6204209 3.96503503 19.6204209 1.3125 11.5625 C-0.23965581 7.34950565 -0.23812037 4.44491355 0 0 Z " fill="#8EAC91" transform="translate(308,232)"/>
<path d="M0 0 C2.31 0 4.62 0 7 0 C4.22719294 3.08089673 1.93673644 4.68775452 -2 6 C0.475 9.465 0.475 9.465 3 13 C2.4225 12.690625 1.845 12.38125 1.25 12.0625 C-0.84294184 11.07416636 -2.74535275 10.4831387 -5 10 C-5.33 8.02 -5.66 6.04 -6 4 C-4.02 3.34 -2.04 2.68 0 2 C0 1.34 0 0.68 0 0 Z " fill="#A9D491" transform="translate(183,326)"/>
<path d="M0 0 C7.27529599 0.03163172 14.03611914 0.44430091 21.09375 2.265625 C21.09375 2.925625 21.09375 3.585625 21.09375 4.265625 C23.40375 4.265625 25.71375 4.265625 28.09375 4.265625 C28.09375 6.245625 28.09375 8.225625 28.09375 10.265625 C27.4646875 9.85570312 26.835625 9.44578125 26.1875 9.0234375 C15.69654208 2.41918989 7.13548387 1.98339686 -4.90625 2.265625 C-2.90625 0.265625 -2.90625 0.265625 0 0 Z " fill="#77997B" transform="translate(250.90625,215.734375)"/>
<path d="M0 0 C3.78716158 1.50362259 7.55245187 3.05487001 11.3125 4.625 C12.38113281 5.07101562 13.44976562 5.51703125 14.55078125 5.9765625 C15.76314453 6.48316406 15.76314453 6.48316406 17 7 C13.73036051 9.17975966 12.78270322 9.36904422 9 9 C7 8.125 7 8.125 5 7 C3.33859237 6.32033324 1.67299959 5.65061095 0 5 C0 3.35 0 1.7 0 0 Z " fill="#90C27A" transform="translate(203,351)"/>
<path d="M0 0 C3.49171665 0.49881666 6.06073923 2.12213895 9 4 C6.3351451 5.33242745 4.85216588 4.58505967 2 4 C0.08780415 5.91219585 0.75564702 9.33645504 0.68359375 11.87890625 C0.66281265 12.5655687 0.64203156 13.25223114 0.62062073 13.95970154 C0.55505857 16.16052935 0.49620985 18.36147975 0.4375 20.5625 C0.39432108 22.05144514 0.350707 23.54037773 0.30664062 25.02929688 C0.1993707 28.68606553 0.09812228 32.34297318 0 36 C-0.33 36 -0.66 36 -1 36 C-1.02465098 31.03377651 -1.04283649 26.06758834 -1.05493164 21.10131836 C-1.0599719 19.41055684 -1.06680405 17.71979971 -1.07543945 16.02905273 C-1.08751857 13.60399293 -1.09323123 11.17899056 -1.09765625 8.75390625 C-1.10281754 7.99348526 -1.10797882 7.23306427 -1.11329651 6.44960022 C-1.11349238 4.6326743 -1.06197277 2.81586873 -1 1 C-0.67 0.67 -0.34 0.34 0 0 Z " fill="#D0EEC3" transform="translate(340,276)"/>
<path d="M0 0 C3.95820859 0.56545837 6.6659053 1.80902348 10 4 C9.53234153 8.7190991 7.65065406 10.91832317 4.4375 14.3125 C3.61121094 15.19550781 2.78492188 16.07851563 1.93359375 16.98828125 C0.97646484 17.98408203 0.97646484 17.98408203 0 19 C-0.66 18.67 -1.32 18.34 -2 18 C-1.25943359 17.34644531 -1.25943359 17.34644531 -0.50390625 16.6796875 C3.73531982 12.78604896 3.73531982 12.78604896 5.9375 7.5625 C5.958125 6.716875 5.97875 5.87125 6 5 C5.34 5 4.68 5 4 5 C4 4.01 4 3.02 4 2 C2.68 1.34 1.36 0.68 0 0 Z " fill="#94B097" transform="translate(304,283)"/>
<path d="M0 0 C2.475 0.99 2.475 0.99 5 2 C0.8687271 6.81981838 -4.03999014 9.7847751 -10 12 C-10.66 11.67 -11.32 11.34 -12 11 C-10.8125 9.5 -10.8125 9.5 -9 8 C-6.3125 7.8125 -6.3125 7.8125 -4 8 C-3.67 6.68 -3.34 5.36 -3 4 C-2.34 4 -1.68 4 -1 4 C-0.67 2.68 -0.34 1.36 0 0 Z " fill="#799B7C" transform="translate(297,300)"/>
<path d="M0 0 C0.33 0 0.66 0 1 0 C1.06058594 1.10859375 1.12117187 2.2171875 1.18359375 3.359375 C1.26802951 4.8229282 1.35267599 6.28646925 1.4375 7.75 C1.47681641 8.47960937 1.51613281 9.20921875 1.55664062 9.9609375 C1.77558432 14.02158945 1.77558432 14.02158945 2.51586914 18.00878906 C3.24322779 21.00038621 3.05890304 23.93704212 3 27 C3.66 27 4.32 27 5 27 C6.125 29.8125 6.125 29.8125 7 33 C6.34 33.99 5.68 34.98 5 36 C1.35933432 26.8983358 -0.3231174 18.7595509 -0.125 8.9375 C-0.11597656 8.07189453 -0.10695312 7.20628906 -0.09765625 6.31445312 C-0.07439723 4.20951221 -0.03854008 2.10471658 0 0 Z " fill="#90AE95" transform="translate(195,248)"/>
<path d="M0 0 C2.08984375 0.43359375 2.08984375 0.43359375 4 1 C3.16855469 1.90492188 3.16855469 1.90492188 2.3203125 2.828125 C1.59585938 3.62734375 0.87140625 4.4265625 0.125 5.25 C-0.59429687 6.03890625 -1.31359375 6.8278125 -2.0546875 7.640625 C-3.76935483 9.72026168 -4.92980873 11.54419267 -6 14 C-6.99 13.67 -7.98 13.34 -9 13 C-8.49892109 8.6573161 -5.82527098 6.16161276 -3 3 C-2.484375 2.360625 -1.96875 1.72125 -1.4375 1.0625 C-0.7259375 0.5365625 -0.7259375 0.5365625 0 0 Z " fill="#719874" transform="translate(231,223)"/>
<path d="M0 0 C1.32 0.33 2.64 0.66 4 1 C2.73164821 4.94598336 0.31064666 6.43980399 -3.1796875 8.31640625 C-5.72169661 9.27102341 -7.48767852 8.91357145 -10 8 C-7.1928292 4.88092134 -4.89328326 3.47313421 -1 2 C-0.67 1.34 -0.34 0.68 0 0 Z " fill="#93C67B" transform="translate(203,157)"/>
<path d="M0 0 C1.98 0.66 3.96 1.32 6 2 C6 2.33 6 2.66 6 3 C4.35 3 2.7 3 1 3 C1 15.54 1 28.08 1 41 C0.67 41 0.34 41 0 41 C0 27.47 0 13.94 0 0 Z " fill="#98C284" transform="translate(218,87)"/>
<path d="M0 0 C5.75 1.75 5.75 1.75 8 4 C8.0625 5.875 8.0625 5.875 7 8 C4.28420604 9.99610856 1.45780467 12 -2 12 C-2 11.01 -2 10.02 -2 9 C-1.01 9 -0.02 9 1 9 C1.66 6.69 2.32 4.38 3 2 C2.01 1.67 1.02 1.34 0 1 C0 0.67 0 0.34 0 0 Z " fill="#A6CE95" transform="translate(192,314)"/>
<path d="M0 0 C3.3 1.65 6.6 3.3 10 5 C10 8 10 8 9 11 C7.125 12.25 7.125 12.25 5 13 C4.01 12.67 3.02 12.34 2 12 C2.66 11.01 3.32 10.02 4 9 C4.66 9 5.32 9 6 9 C6 8.34 6 7.68 6 7 C6.66 7 7.32 7 8 7 C8 6.34 8 5.68 8 5 C5.69 4.67 3.38 4.34 1 4 C0.67 2.68 0.34 1.36 0 0 Z " fill="#7DB85A" transform="translate(410,319)"/>
<path d="M0 0 C2.02168235 4.0433647 2.35927761 6.32129345 2.625 10.75 C2.69976562 11.92046875 2.77453125 13.0909375 2.8515625 14.296875 C2.90054688 15.18890625 2.94953125 16.0809375 3 17 C-0.81583379 16.34820749 -3.02881405 15.53101025 -6 13 C-3.03 13.495 -3.03 13.495 0 14 C0 9.38 0 4.76 0 0 Z " fill="#B6D5A7" transform="translate(147,264)"/>
<path d="M0 0 C0.66 0.33 1.32 0.66 2 1 C1.3503125 1.59748047 1.3503125 1.59748047 0.6875 2.20703125 C0.130625 2.73683594 -0.42625 3.26664063 -1 3.8125 C-1.556875 4.33457031 -2.11375 4.85664063 -2.6875 5.39453125 C-4.316465 7.04148967 -4.316465 7.04148967 -4 10 C-6.74545456 13.05050507 -9.6462327 15.63994153 -13 18 C-13.33 17.34 -13.66 16.68 -14 16 C-9.69856377 10.23424506 -5.2302516 4.94409802 0 0 Z " fill="#7C9F82" transform="translate(217,210)"/>
<path d="M0 0 C2.9375 1.25 2.9375 1.25 6 3 C6.6875 5.125 6.6875 5.125 7 7 C7.99 7.33 8.98 7.66 10 8 C11.6875 11.0625 11.6875 11.0625 13 14 C9.16202456 12.43638038 6.8332373 9.97489917 4 7 C3.236875 6.29875 2.47375 5.5975 1.6875 4.875 C0 3 0 3 0 0 Z " fill="#7BB95D" transform="translate(166,352)"/>
<path d="M0 0 C3.3 0.99 6.6 1.98 10 3 C10 3.66 10 4.32 10 5 C10.99 5 11.98 5 13 5 C13.66 6.98 14.32 8.96 15 11 C10.92584833 9.59790456 8.01720177 7.65552322 4.6875 4.9375 C3.80449219 4.22464844 2.92148438 3.51179688 2.01171875 2.77734375 C1.34785156 2.19082031 0.68398437 1.60429687 0 1 C0 0.67 0 0.34 0 0 Z " fill="#6B9472" transform="translate(210,298)"/>
<path d="M0 0 C4.88049925 3.9419417 9.0580583 8.11950075 13 13 C12.67 13.66 12.34 14.32 12 15 C7.2 12.53846154 7.2 12.53846154 6.1875 9.8125 C6.0946875 8.9153125 6.0946875 8.9153125 6 8 C5.01 8 4.02 8 3 8 C3 7.01 3 6.02 3 5 C2.01 4.67 1.02 4.34 0 4 C0 2.68 0 1.36 0 0 Z " fill="#9CC785" transform="translate(348,159)"/>
<path d="M0 0 C0.66 0.33 1.32 0.66 2 1 C2 1.99 2 2.98 2 4 C0.68 4.33 -0.64 4.66 -2 5 C-2 5.66 -2 6.32 -2 7 C-4.31 7.66 -6.62 8.32 -9 9 C-9.66 8.34 -10.32 7.68 -11 7 C-9.21475351 5.80286983 -7.4215972 4.61752721 -5.625 3.4375 C-4.62726563 2.77621094 -3.62953125 2.11492187 -2.6015625 1.43359375 C-1.74304688 0.96050781 -0.88453125 0.48742187 0 0 Z " fill="#9CCA86" transform="translate(319,343)"/>
<path d="M0 0 C0.33 0 0.66 0 1 0 C1 8.25 1 16.5 1 25 C-2.3 24.34 -5.6 23.68 -9 23 C-9.33 22.34 -9.66 21.68 -10 21 C-7.03 21.33 -4.06 21.66 -1 22 C-0.67 14.74 -0.34 7.48 0 0 Z " fill="#93C07A" transform="translate(146,253)"/>
<path d="M0 0 C0.33 0 0.66 0 1 0 C1.33 3.63 1.66 7.26 2 11 C3.051875 10.505 4.10375 10.01 5.1875 9.5 C8.25452609 8.17220212 10.62134936 7.69284994 14 8 C10.12873869 11.63663942 7.3000045 12.69999975 2 13 C1.34 12.67 0.68 12.34 0 12 C0 8.04 0 4.08 0 0 Z " fill="#89BE71" transform="translate(220,168)"/>
<path d="M0 0 C0.66 0.33 1.32 0.66 2 1 C-0.64811022 4.42696617 -3.99428805 5.01111226 -8 6 C-9.98007809 6.5383254 -11.95920935 7.0801426 -13.9375 7.625 C-15.62488648 8.0837511 -17.31234761 8.5422281 -19 9 C-16.40485938 6.12538269 -13.86259552 5.03866535 -10.19921875 3.765625 C-7.97771742 2.99224266 -5.808178 2.12486186 -3.625 1.25 C-2.42875 0.8375 -1.2325 0.425 0 0 Z " fill="#9DC884" transform="translate(206,132)"/>
<path d="M0 0 C1.65 0 3.3 0 5 0 C1.72570907 4.33362035 -0.76986166 7.02416996 -6 9 C-6.66 8.67 -7.32 8.34 -8 8 C-7.3125 6.0625 -7.3125 6.0625 -6 4 C-3.375 3.25 -3.375 3.25 -1 3 C-0.67 2.01 -0.34 1.02 0 0 Z " fill="#81B760" transform="translate(358,359)"/>
<path d="M0 0 C0.556875 0.37511719 1.11375 0.75023437 1.6875 1.13671875 C6.25646168 4.2007015 10.85370246 7.18088511 15.56640625 10.01953125 C16.03949219 10.34308594 16.51257813 10.66664063 17 11 C17 11.33 17 11.66 17 12 C14.6875 12.1875 14.6875 12.1875 12 12 C10.5 10.6875 10.5 10.6875 9 9 C8.113125 8.484375 7.22625 7.96875 6.3125 7.4375 C5.549375 6.963125 4.78625 6.48875 4 6 C4 5.34 4 4.68 4 4 C2.35 4 0.7 4 -1 4 C-0.67 2.68 -0.34 1.36 0 0 Z " fill="#AED398" transform="translate(186,339)"/>
<path d="M0 0 C1.32 0 2.64 0 4 0 C4.2475 0.78375 4.495 1.5675 4.75 2.375 C6.22323763 5.46879902 7.04143731 5.56554536 10 7 C11.625 9.4375 11.625 9.4375 13 12 C13.99 13.485 13.99 13.485 15 15 C11.4249647 13.48183433 9.1002487 11.36847779 6.375 8.625 C5.59898437 7.85414063 4.82296875 7.08328125 4.0234375 6.2890625 C2.20595671 4.2329935 1.06476113 2.50734071 0 0 Z " fill="#99C783" transform="translate(156,345)"/>
<path d="M0 0 C0.66 0.33 1.32 0.66 2 1 C1.195625 1.45375 0.39125 1.9075 -0.4375 2.375 C-3.08856572 3.74725665 -3.08856572 3.74725665 -4 6 C-10.27 5.67 -16.54 5.34 -23 5 C-23 4.67 -23 4.34 -23 4 C-21.84242188 3.87882812 -20.68484375 3.75765625 -19.4921875 3.6328125 C-17.95308708 3.46388684 -16.41402663 3.29459668 -14.875 3.125 C-13.73417969 3.00705078 -13.73417969 3.00705078 -12.5703125 2.88671875 C-8.11584123 2.38751076 -4.26321877 1.4383504 0 0 Z " fill="#95B69A" transform="translate(276,293)"/>
<path d="M0 0 C0.33 0 0.66 0 1 0 C1.02708567 1.60407328 1.04643483 3.2082785 1.0625 4.8125 C1.07410156 5.70582031 1.08570313 6.59914063 1.09765625 7.51953125 C1 10 1 10 0 13 C-3.21852831 12.36934243 -5.50801069 11.21979305 -8.25 9.4375 C-8.95640625 8.98246094 -9.6628125 8.52742188 -10.390625 8.05859375 C-11.18726563 7.53458984 -11.18726563 7.53458984 -12 7 C-11.34 6.67 -10.68 6.34 -10 6 C-7.5249829 7.11431765 -5.32116581 8.58150978 -3 10 C-1.5783681 6.6828589 -0.60990891 3.55780196 0 0 Z " fill="#C7E6B6" transform="translate(361,275)"/>
<path d="M0 0 C9.10901591 1.32115498 9.10901591 1.32115498 12.625 4 C14 6 14 6 14 8 C8.76481294 6.56032356 4.36973991 4.18303389 0 1 C0 0.67 0 0.34 0 0 Z " fill="#AED496" transform="translate(122,266)"/>
<path d="M0 0 C0.33 0 0.66 0 1 0 C1 7.59 1 15.18 1 23 C2.65 23 4.3 23 6 23 C4.6875 24.5 4.6875 24.5 3 26 C2.01 26 1.02 26 0 26 C0 17.42 0 8.84 0 0 Z " fill="#AACE98" transform="translate(116,344)"/>
<path d="M0 0 C1.15941038 3.47823115 0.70820884 5.45895578 0 9 C2.475 10.98 2.475 10.98 5 13 C2.8125 13.75 2.8125 13.75 0 14 C-2.8125 12.0625 -2.8125 12.0625 -5 10 C-4.34 10 -3.68 10 -3 10 C-2.87625 8.906875 -2.7525 7.81375 -2.625 6.6875 C-2 3 -2 3 0 0 Z " fill="#A6CF8B" transform="translate(384,292)"/>
<path d="M0 0 C3.41529114 0.2846076 4.78498424 0.79660671 7.3125 3.1875 C9.25629673 6.42716122 9.34530062 8.28801837 9 12 C5.81994972 8.11327187 2.89445553 4.10047867 0 0 Z " fill="#537F58" transform="translate(279,226)"/>
<path d="M0 0 C0.99 0.33 1.98 0.66 3 1 C3 2.32 3 3.64 3 5 C3.99 4.67 4.98 4.34 6 4 C6.66 8.29 7.32 12.58 8 17 C5.44006232 14.44006232 4.38152865 11.78961812 2.875 8.5 C2.33617187 7.3346875 1.79734375 6.169375 1.2421875 4.96875 C0 2 0 2 0 0 Z " fill="#ACD392" transform="translate(349,201)"/>
<path d="M0 0 C5.75 0.875 5.75 0.875 8 2 C8.33 1.34 8.66 0.68 9 0 C9.433125 0.474375 9.86625 0.94875 10.3125 1.4375 C12.02309613 3.23686957 12.02309613 3.23686957 15 4 C15 4.99 15 5.98 15 7 C9.76727367 5.36041242 4.84803364 3.61047965 0 1 C0 0.67 0 0.34 0 0 Z " fill="#A5D190" transform="translate(292,154)"/>
<path d="M0 0 C4.70552147 1.44785276 4.70552147 1.44785276 6 3.875 C6 6.74470549 4.87086204 7.90463451 3 10 C0.59185923 6.48812804 -0.36629408 4.27343092 0 0 Z " fill="#376C3E" transform="translate(201,281)"/>
<path d="M0 0 C0.33 0 0.66 0 1 0 C1.27263672 0.99580078 1.27263672 0.99580078 1.55078125 2.01171875 C2.91438896 6.80182789 4.34659529 10.75455246 7 15 C6.67 15.66 6.34 16.32 6 17 C5.01 17 4.02 17 3 17 C2.71125 16.030625 2.4225 15.06125 2.125 14.0625 C1.35785318 10.89335797 1.35785318 10.89335797 -1 10 C-0.67 6.7 -0.34 3.4 0 0 Z " fill="#84A489" transform="translate(221,266)"/>
<path d="M0 0 C6.36952509 0.35012189 12.35329628 3.25006864 18 6 C18 6.33 18 6.66 18 7 C16.02 7 14.04 7 12 7 C11.67 6.34 11.34 5.68 11 5 C9.35 5 7.7 5 6 5 C5.67 4.01 5.34 3.02 5 2 C2.69 2 0.38 2 -2 2 C-1.34 1.34 -0.68 0.68 0 0 Z " fill="#89A78D" transform="translate(266,199)"/>
<path d="M0 0 C4.39383706 1.59623144 8.28995807 3.78024333 12.3125 6.125 C12.95767578 6.49753906 13.60285156 6.87007813 14.26757812 7.25390625 C15.84675945 8.16632213 17.42361864 9.08275509 19 10 C17 11 17 11 15.23046875 10.4765625 C14.55628906 10.19554688 13.88210938 9.91453125 13.1875 9.625 C10.13560549 8.4075776 7.26166336 7.5096349 4 7 C4.66 6.34 5.32 5.68 6 5 C5.01 4.360625 4.02 3.72125 3 3.0625 C2.01 2.381875 1.02 1.70125 0 1 C0 0.67 0 0.34 0 0 Z " fill="#BCE1AA" transform="translate(270,114)"/>
<path d="M0 0 C1.134375 0.020625 2.26875 0.04125 3.4375 0.0625 C0.05597808 1.96046206 -3.29686548 2.86473042 -7.0625 3.75 C-8.1865625 4.02199219 -9.310625 4.29398437 -10.46875 4.57421875 C-13.3309642 5.0259571 -14.88491337 5.04034414 -17.5625 4.0625 C-14.97581224 1.47581224 -13.59358979 1.72020694 -10 1.5 C-6.17470519 1.2562556 -3.65114899 0.06405525 0 0 Z " fill="#9EC586" transform="translate(292.5625,383.9375)"/>
<path d="M0 0 C0.66 0.33 1.32 0.66 2 1 C0.04480616 2.17192047 -1.9142539 3.3373929 -3.875 4.5 C-4.96554688 5.1496875 -6.05609375 5.799375 -7.1796875 6.46875 C-10 8 -10 8 -12 8 C-11.67 6.35 -11.34 4.7 -11 3 C-10.37351562 2.86722656 -9.74703125 2.73445313 -9.1015625 2.59765625 C-8.28429687 2.42105469 -7.46703125 2.24445313 -6.625 2.0625 C-5.81289062 1.88847656 -5.00078125 1.71445312 -4.1640625 1.53515625 C-1.970537 1.07669307 -1.970537 1.07669307 0 0 Z " fill="#ABD497" transform="translate(134,359)"/>
<path d="M0 0 C0.66 0 1.32 0 2 0 C4.46254726 6.61809577 4.18935472 13.00439516 4 20 C3.67 20 3.34 20 3 20 C2.67 15.38 2.34 10.76 2 6 C1.34 6 0.68 6 0 6 C0 4.02 0 2.04 0 0 Z " fill="#7CB75E" transform="translate(384,229)"/>
<path d="M0 0 C1.65 0 3.3 0 5 0 C2.83385197 2.30874711 0.60793392 4.05290181 -2.0625 5.75 C-3.10083984 6.42289063 -3.10083984 6.42289063 -4.16015625 7.109375 C-4.76730469 7.40328125 -5.37445313 7.6971875 -6 8 C-6.66 7.67 -7.32 7.34 -8 7 C-7.67 6.01 -7.34 5.02 -7 4 C-3.4375 2.3125 -3.4375 2.3125 0 1 C0 0.67 0 0.34 0 0 Z " fill="#A3CD8C" transform="translate(260,157)"/>
<path d="M0 0 C1.32 0.66 2.64 1.32 4 2 C2.56570999 2.67354499 1.12742943 3.33859701 -0.3125 4 C-1.51326172 4.556875 -1.51326172 4.556875 -2.73828125 5.125 C-5 6 -5 6 -8 6 C-7.67 4.68 -7.34 3.36 -7 2 C-3.535 1.505 -3.535 1.505 0 1 C0 0.67 0 0.34 0 0 Z " fill="#8FC475" transform="translate(312,375)"/>
<path d="M0 0 C1.98 0 3.96 0 6 0 C4.19135947 3.19171858 3.06511869 3.9751365 -0.4375 5.3125 C-3.58537175 5.91998402 -5.09556332 6.16177467 -8 5 C-4.91190305 3.23537317 -3.76687864 3 0 3 C0 2.01 0 1.02 0 0 Z " fill="#7BB85D" transform="translate(308,351)"/>
<path d="M0 0 C0.33 0.66 0.66 1.32 1 2 C-0.25 5.0625 -0.25 5.0625 -2 8 C-2.99 8.33 -3.98 8.66 -5 9 C-5 9.99 -5 10.98 -5 12 C-5.99 12.33 -6.98 12.66 -8 13 C-6.40956621 7.91061189 -3.2553049 4.12543357 0 0 Z " fill="#AFD099" transform="translate(149,174)"/>
<path d="M0 0 C1.32 0.33 2.64 0.66 4 1 C4 1.99 4 2.98 4 4 C4.99 4.33 5.98 4.66 7 5 C7 5.66 7 6.32 7 7 C7.99 7 8.98 7 10 7 C10.33 7.99 10.66 8.98 11 10 C6.89041233 8.54955729 3.56741255 6.48889248 0 4 C0.99 3.34 1.98 2.68 3 2 C2.01 1.67 1.02 1.34 0 1 C0 0.67 0 0.34 0 0 Z " fill="#98C682" transform="translate(179,363)"/>
<path d="M0 0 C1.32 0.66 2.64 1.32 4 2 C1.03 4.31 -1.94 6.62 -5 9 C-5.66 8.67 -6.32 8.34 -7 8 C-6.67 7.01 -6.34 6.02 -6 5 C-5.01 5 -4.02 5 -3 5 C-3 4.01 -3 3.02 -3 2 C-2.01 2 -1.02 2 0 2 C0 1.34 0 0.68 0 0 Z " fill="#A1CE8E" transform="translate(192,165)"/>
<path d="M0 0 C3.465 1.98 3.465 1.98 7 4 C7 4.66 7 5.32 7 6 C5.35 6.33 3.7 6.66 2 7 C0 4 0 4 0 0 Z " fill="#9FCA82" transform="translate(328,143)"/>
<path d="M0 0 C0.46192125 4.92715996 -1.1724717 8.50732625 -3 13 C-3.33 13 -3.66 13 -4 13 C-4.47081122 4.83927218 -4.47081122 4.83927218 -2.5625 1.4375 C-1 0 -1 0 0 0 Z " fill="#79B85B" transform="translate(384,289)"/>
<path d="M0 0 C1.94921875 0.828125 1.94921875 0.828125 4 2 C5.25564319 6.24986926 4.91996675 9.70682182 4 14 C2.30566082 10.9530371 1.50532888 8.17178534 0.875 4.75 C0.70742188 3.85796875 0.53984375 2.9659375 0.3671875 2.046875 C0.18542969 1.03367188 0.18542969 1.03367188 0 0 Z " fill="#B1D79A" transform="translate(357,218)"/>
<path d="M0 0 C0.66 0.33 1.32 0.66 2 1 C0.74922363 3.50155273 -0.35027305 3.92212548 -2.8125 5.1875 C-3.49957031 5.55230469 -4.18664062 5.91710937 -4.89453125 6.29296875 C-7.35996549 7.12087895 -8.58292094 6.85276722 -11 6 C-10.34 6 -9.68 6 -9 6 C-9 5.34 -9 4.68 -9 4 C-7.54618103 3.30300448 -6.08677047 2.61766134 -4.625 1.9375 C-3.40683594 1.36322266 -3.40683594 1.36322266 -2.1640625 0.77734375 C-1.09285156 0.39255859 -1.09285156 0.39255859 0 0 Z " fill="#7EB761" transform="translate(196,137)"/>
<path d="M0 0 C0.33 0 0.66 0 1 0 C1.10792837 2.60527105 1.18724878 5.20608311 1.25 7.8125 C1.28351563 8.55048828 1.31703125 9.28847656 1.3515625 10.04882812 C1.390625 12.20703125 1.390625 12.20703125 1 16 C-1.015625 18.01171875 -1.015625 18.01171875 -3 19 C-3.66 18.67 -4.32 18.34 -5 18 C-3.625 16.5 -3.625 16.5 -2 15 C-1.34 15 -0.68 15 0 15 C0 10.05 0 5.1 0 0 Z " fill="#BEDCAE" transform="translate(330,352)"/>
<path d="M0 0 C3.875 1.75 3.875 1.75 5 4 C1.98112756 7.48331435 -0.56909529 8.79157144 -5 10 C-3.36587557 8.29159719 -2.13093906 7.06546953 0 6 C0.75243555 4.07361988 0.75243555 4.07361988 1 2 C0.67 1.34 0.34 0.68 0 0 Z " fill="#BFD7A9" transform="translate(419,323)"/>
<path d="M0 0 C2.50630278 2.92961933 3.40528494 4.91187514 3.6875 8.75 C3.75324219 9.54921875 3.81898438 10.3484375 3.88671875 11.171875 C3.92410156 11.77515625 3.96148437 12.3784375 4 13 C3.01 12.34 2.02 11.68 1 11 C0.48828125 8.3984375 0.48828125 8.3984375 0.3125 5.375 C0.24675781 4.37210938 0.18101562 3.36921875 0.11328125 2.3359375 C0.07589844 1.56507813 0.03851563 0.79421875 0 0 Z " fill="#9BC780" transform="translate(375,195)"/>
<path d="M0 0 C4.75 1.875 4.75 1.875 7 3 C7 5.31 7 7.62 7 10 C3.66442368 7.0094833 1.84916079 4.06815373 0 0 Z " fill="#A2CE87" transform="translate(342,191)"/>
<path d="M0 0 C1.11375 0.3403125 1.11375 0.3403125 2.25 0.6875 C-0.11595933 3.30250768 -2.61049226 5.07749603 -5.75 6.6875 C-6.41 6.3575 -7.07 6.0275 -7.75 5.6875 C-6.3502077 1.48812309 -4.58927239 -0.52150823 0 0 Z " fill="#A6CE8F" transform="translate(249.75,164.3125)"/>
<path d="M0 0 C2.475 0.99 2.475 0.99 5 2 C3.75 4 3.75 4 2 6 C0.68 6 -0.64 6 -2 6 C-1.34 4.02 -0.68 2.04 0 0 Z " fill="#608563" transform="translate(297,300)"/>
<path d="M0 0 C2.88382203 5.48514722 3.3021921 9.92310351 2 16 C-0.42130331 12.36804504 -0.21022785 10.61650652 -0.125 6.3125 C-0.09792969 4.54326172 -0.09792969 4.54326172 -0.0703125 2.73828125 C-0.04710937 1.83464844 -0.02390625 0.93101562 0 0 Z " fill="#3D6B48" transform="translate(196,251)"/>
<path d="M0 0 C-5.14285714 4.42857143 -5.14285714 4.42857143 -9 5 C-9 3.68 -9 2.36 -9 1 C-5.8035914 -0.06546953 -3.34252724 -0.07427838 0 0 Z " fill="#97C581" transform="translate(325,371)"/>
<path d="M0 0 C0.66 0 1.32 0 2 0 C1.125 5.75 1.125 5.75 0 8 C-0.99 7.67 -1.98 7.34 -3 7 C-2.38722388 4.03824877 -1.74627478 2.61941217 0 0 Z " fill="#5B815E" transform="translate(225,229)"/>
<path d="M0 0 C0.33 0.99 0.66 1.98 1 3 C-1.86181411 6.16305771 -5.2099782 8.1049891 -9 10 C-7.61811547 6.78956118 -6.07578097 4.95063635 -3.375 2.75 C-2.74335938 2.22921875 -2.11171875 1.7084375 -1.4609375 1.171875 C-0.73777344 0.59179688 -0.73777344 0.59179688 0 0 Z " fill="#9DC884" transform="translate(159,164)"/>
<path d="M0 0 C1.32 0.66 2.64 1.32 4 2 C0.7 2.66 -2.6 3.32 -6 4 C-6.33 4.99 -6.66 5.98 -7 7 C-8.32 6.67 -9.64 6.34 -11 6 C-9.73168307 5.18357746 -8.46024069 4.37200895 -7.1875 3.5625 C-6.47980469 3.11003906 -5.77210938 2.65757812 -5.04296875 2.19140625 C-3 1 -3 1 0 0 Z " fill="#C2E2B2" transform="translate(315,136)"/>
<path d="M0 0 C-0.625 1.9375 -0.625 1.9375 -2 4 C-5.125 4.75 -5.125 4.75 -8 5 C-8 4.01 -8 3.02 -8 2 C-5.09399739 0.74335022 -3.20395416 0 0 0 Z " fill="#84BA66" transform="translate(216,129)"/>
<path d="M0 0 C0 0.99 0 1.98 0 3 C-1.24420647 3.5345256 -2.49570936 4.05208611 -3.75 4.5625 C-4.44609375 4.85253906 -5.1421875 5.14257812 -5.859375 5.44140625 C-8.30012784 6.07831803 -9.6403655 5.80248831 -12 5 C-10.37750059 4.16180842 -8.75191503 3.3295884 -7.125 2.5 C-6.22007812 2.0359375 -5.31515625 1.571875 -4.3828125 1.09375 C-2 0 -2 0 0 0 Z " fill="#B9DEA8" transform="translate(308,351)"/>
<path d="M0 0 C0.99 0 1.98 0 3 0 C1.68775452 3.93673644 0.08089673 6.22719294 -3 9 C-3 7.02 -3 5.04 -3 3 C-2.01 3 -1.02 3 0 3 C0 2.01 0 1.02 0 0 Z " fill="#A2CF88" transform="translate(166,191)"/>
<path d="M0 0 C0 0.66 0 1.32 0 2 C-0.66 2 -1.32 2 -2 2 C-2.66 3.65 -3.32 5.3 -4 7 C-7 7 -7 7 -9 6 C-3.15384615 0 -3.15384615 0 0 0 Z " fill="#B1D499" transform="translate(187,141)"/>
<path d="M0 0 C4.61513112 1.31860889 8.09897612 3.21355437 12 6 C9 7 9 7 6 6 C5.67 5.34 5.34 4.68 5 4 C4.01 3.7834375 4.01 3.7834375 3 3.5625 C2.34 3.376875 1.68 3.19125 1 3 C0.67 2.01 0.34 1.02 0 0 Z " fill="#BED9AD" transform="translate(291,126)"/>
<path d="M0 0 C5.53846154 -0.36923077 5.53846154 -0.36923077 7.875 1.5 C8.24625 1.995 8.6175 2.49 9 3 C6.21176345 4.0326802 5.1322726 4.04509293 2.25 3.0625 C1.5075 2.711875 0.765 2.36125 0 2 C0 1.34 0 0.68 0 0 Z " fill="#8FC176" transform="translate(207,380)"/>
<path d="M0 0 C1.64936913 0.78427352 3.29441127 1.57765259 4.9375 2.375 C5.85402344 2.81585938 6.77054687 3.25671875 7.71484375 3.7109375 C10 5 10 5 11 7 C10.01 7 9.02 7 8 7 C8 6.34 8 5.68 8 5 C5.69 4.67 3.38 4.34 1 4 C0.67 2.68 0.34 1.36 0 0 Z " fill="#84B969" transform="translate(410,319)"/>
<path d="M0 0 C-1.1446875 0.4021875 -1.1446875 0.4021875 -2.3125 0.8125 C-5.00498475 1.78913749 -5.00498475 1.78913749 -6.5 3.625 C-8 5 -8 5 -10.6875 5.1875 C-11.8321875 5.0946875 -11.8321875 5.0946875 -13 5 C-9.76220634 1.00037254 -4.97776602 -1.65925534 0 0 Z " fill="#ABC5AD" transform="translate(238,201)"/>
<path d="M0 0 C-0.66 1.65 -1.32 3.3 -2 5 C-4.64 5.33 -7.28 5.66 -10 6 C-7.35570758 3.077361 -4.105808 0 0 0 Z " fill="#B3DAA0" transform="translate(304,143)"/>
<path d="M0 0 C4.03520597 1.58962659 8.01811282 3.28232318 12 5 C12 5.66 12 6.32 12 7 C9.03 6.01 6.06 5.02 3 4 C3 3.34 3 2.68 3 2 C2.01 2 1.02 2 0 2 C0 1.34 0 0.68 0 0 Z " fill="#7AB95D" transform="translate(186,368)"/>
<path d="M0 0 C1.98 0 3.96 0 6 0 C6.33 0.66 6.66 1.32 7 2 C2.545 3.485 2.545 3.485 -2 5 C-1.34 3.35 -0.68 1.7 0 0 Z " fill="#ADD593" transform="translate(151,346)"/>
<path d="M0 0 C3.73884332 2.65654657 5.64978174 4.58110387 7 9 C6.01 8.67 5.02 8.34 4 8 C3.01 8.33 2.02 8.66 1 9 C1.20625 8.2575 1.4125 7.515 1.625 6.75 C2.04408751 3.67669159 1.61949011 2.57213134 0 0 Z " fill="#7EA284" transform="translate(297,216)"/>
<path d="M0 0 C5.57142857 5.14285714 5.57142857 5.14285714 6 9 C5.34 9 4.68 9 4 9 C1.3125 6.1875 1.3125 6.1875 -1 3 C-0.67 2.01 -0.34 1.02 0 0 Z " fill="#9BC784" transform="translate(364,178)"/>
<path d="M0 0 C2.96404505 2.80804268 5.44499019 5.18315774 7 9 C4.0625 7.875 4.0625 7.875 1 6 C0.125 2.8125 0.125 2.8125 0 0 Z " fill="#A4CE90" transform="translate(354,165)"/>
<path d="M0 0 C5.75 0.75 5.75 0.75 8 3 C5.36 3.33 2.72 3.66 0 4 C0 2.68 0 1.36 0 0 Z " fill="#99CB84" transform="translate(212,356)"/>
<path d="M0 0 C3.48539917 0.64544429 6.02819057 2.10134397 9 4 C6.33059475 5.33470263 4.86667247 4.57333449 2 4 C1.01 4.495 1.01 4.495 0 5 C0 3.35 0 1.7 0 0 Z " fill="#B7D4A6" transform="translate(340,276)"/>
<path d="M0 0 C-5.4 3.6 -5.4 3.6 -8 5 C-8.66 4.67 -9.32 4.34 -10 4 C-10 3.01 -10 2.02 -10 1 C-6.21812119 -0.83691257 -4.05431692 -1.15837626 0 0 Z " fill="#81A386" transform="translate(245,218)"/>
<path d="M0 0 C2.88437779 1.29299694 4.87219421 2.65941363 7 5 C5.02 5 3.04 5 1 5 C0.67 3.35 0.34 1.7 0 0 Z " fill="#6B9270" transform="translate(288,209)"/>
<path d="M0 0 C0.66 0 1.32 0 2 0 C2.33 2.31 2.66 4.62 3 7 C2.01 6.67 1.02 6.34 0 6 C-0.38218767 4.34385343 -0.71395102 2.67542976 -1 1 C-0.67 0.67 -0.34 0.34 0 0 Z " fill="#7DB859" transform="translate(349,195)"/>
<path d="M0 0 C1.98 0.495 1.98 0.495 4 1 C4.33 3.31 4.66 5.62 5 8 C2.5 5.6875 2.5 5.6875 0 3 C0 2.01 0 1.02 0 0 Z " fill="#A0CA86" transform="translate(337,183)"/>
<path d="M0 0 C1.42944945 2.35438733 2.08661261 3.48032433 1.625 6.25 C1.41875 6.8275 1.2125 7.405 1 8 C-3 3.25 -3 3.25 -3 1 C-2.01 0.67 -1.02 0.34 0 0 Z " fill="#6B9471" transform="translate(208,290)"/>
<path d="M0 0 C4.50802601 1.25805377 7.4912812 2.90407165 11 6 C7.45028204 5.39147692 4.23306391 4.61653196 1 3 C0.67 2.01 0.34 1.02 0 0 Z " fill="#B7D9A3" transform="translate(141,286)"/>
<path d="M0 0 C2.50037734 2.17424117 3.43628586 3.73045798 4 7 C2.35 6.67 0.7 6.34 -1 6 C-0.67 4.02 -0.34 2.04 0 0 Z " fill="#6B8C6D" transform="translate(304,225)"/>
<path d="M0 0 C4.26086957 6.39130435 4.26086957 6.39130435 3.625 10.3125 C3.41875 10.869375 3.2125 11.42625 3 12 C0.58314288 7.77050005 -0.34833144 4.87664009 0 0 Z " fill="#83B761" transform="translate(356,209)"/>
<path d="M0 0 C1.65 0 3.3 0 5 0 C5.99 1.98 6.98 3.96 8 6 C4.63408134 4.55746343 2.48952921 2.66735273 0 0 Z " fill="#9BC789" transform="translate(171,360)"/>
<path d="M0 0 C2.9375 1.3125 2.9375 1.3125 6 3 C6.33 3.99 6.66 4.98 7 6 C4 6 4 6 2 5 C2 4.01 2 3.02 2 2 C1.34 2 0.68 2 0 2 C0 1.34 0 0.68 0 0 Z " fill="#9CCB83" transform="translate(389,305)"/>
<path d="M0 0 C0.33 1.32 0.66 2.64 1 4 C1.66 4 2.32 4 3 4 C3 7.3 3 10.6 3 14 C2.67 14 2.34 14 2 14 C1.855625 12.865625 1.71125 11.73125 1.5625 10.5625 C1.38828522 7.19222799 1.38828522 7.19222799 0 6 C-0.04080783 4.00041636 -0.04254356 1.99954746 0 0 Z " fill="#84B867" transform="translate(361,226)"/>
<path d="M0 0 C0.99 0 1.98 0 3 0 C1.375 5.75 1.375 5.75 -2 8 C-1.125 1.125 -1.125 1.125 0 0 Z " fill="#36683E" transform="translate(204,227)"/>
<path d="M0 0 C0.33 0 0.66 0 1 0 C1 2.97 1 5.94 1 9 C0.01 9.33 -0.98 9.66 -2 10 C-1.54177532 6.53058454 -1.10868317 3.32604951 0 0 Z " fill="#87BA71" transform="translate(128,215)"/>
<path d="M0 0 C0.66 0 1.32 0 2 0 C2 0.66 2 1.32 2 2 C2.66 2 3.32 2 4 2 C4 3.65 4 5.3 4 7 C3.01 6.67 2.02 6.34 1 6 C0.67 4.02 0.34 2.04 0 0 Z " fill="#7DB85B" transform="translate(341,185)"/>
<path d="M0 0 C0.94875 0.04125 1.8975 0.0825 2.875 0.125 C0.52222731 2.84926311 -1.74996331 3.9391763 -5.125 5.125 C-5.125 0.85616396 -4.22482433 0.16899297 0 0 Z " fill="#A4CE90" transform="translate(272.125,150.875)"/>
<path d="M0 0 C3.68266103 0.59950296 7.34543185 1.24758891 11 2 C11 2.66 11 3.32 11 4 C3.49230769 3.38461538 3.49230769 3.38461538 1 1.4375 C0.67 0.963125 0.34 0.48875 0 0 Z " fill="#94C27B" transform="translate(190,373)"/>
<path d="M0 0 C1.98 0.495 1.98 0.495 4 1 C3.67 2.32 3.34 3.64 3 5 C1.68 4.67 0.36 4.34 -1 4 C-0.67 2.68 -0.34 1.36 0 0 Z " fill="#7BB75D" transform="translate(347,363)"/>
<path d="M0 0 C2.475 0.495 2.475 0.495 5 1 C6.125 4.75 6.125 4.75 5 7 C3.35 4.69 1.7 2.38 0 0 Z " fill="#629167" transform="translate(279,226)"/>
<path d="M0 0 C5.75 0.75 5.75 0.75 8 3 C6.02 3.33 4.04 3.66 2 4 C1.34 2.68 0.68 1.36 0 0 Z " fill="#A9D290" transform="translate(262,111)"/>
<path d="M0 0 C2.31 0 4.62 0 7 0 C4.37801226 2.15377564 2.35595828 3.40072174 -1 4 C-0.67 2.68 -0.34 1.36 0 0 Z " fill="#A7D392" transform="translate(351,364)"/>
<path d="M0 0 C0.33 0.66 0.66 1.32 1 2 C0.01 3.32 -0.98 4.64 -2 6 C-3.32 5.34 -4.64 4.68 -6 4 C-4.02 2.68 -2.04 1.36 0 0 Z " fill="#3B6C41" transform="translate(288,287)"/>
<path d="M0 0 C1.65 0.99 3.3 1.98 5 3 C4.34 4.32 3.68 5.64 3 7 C0 2.25 0 2.25 0 0 Z " fill="#6B8D6F" transform="translate(201,284)"/>
<path d="M0 0 C0.99 0.33 1.98 0.66 3 1 C2.34 1 1.68 1 1 1 C1 1.66 1 2.32 1 3 C-0.98 3.66 -2.96 4.32 -5 5 C-4.67 3.68 -4.34 2.36 -4 1 C-2.02 1.495 -2.02 1.495 0 2 C0 1.34 0 0.68 0 0 Z " fill="#99C786" transform="translate(211,155)"/>
</svg>
